M48
;DRILL file {KiCad 4.0.6} date 01/12/18 11:12:29
;FORMAT={-:-/ absolute / inch / decimal}
FMAT,2
INCH,TZ
T1C0.016
T2C0.040
%
G90
G05
M72
T1
X1.425Y0.62
X1.425Y-0.39
X1.425Y-1.4
X1.425Y-2.41
X1.425Y-3.42
X1.425Y-4.43
X1.425Y-5.44
X1.425Y-6.45
X1.44Y0.16
X1.44Y-0.85
X1.44Y-1.86
X1.44Y-2.87
X1.44Y-3.88
X1.44Y-4.89
X1.44Y-5.9
X1.44Y-6.91
X1.5Y0.42
X1.5Y-0.59
X1.5Y-1.6
X1.5Y-2.61
X1.5Y-3.62
X1.5Y-4.63
X1.5Y-5.64
X1.5Y-6.65
X1.5862Y0.4934
X1.5862Y-0.5166
X1.5862Y-1.5266
X1.5862Y-2.5366
X1.5862Y-3.5466
X1.5862Y-4.5566
X1.5862Y-5.5666
X1.5862Y-6.5766
X1.6Y0.42
X1.6Y-0.59
X1.6Y-1.6
X1.6Y-2.61
X1.6Y-3.62
X1.6Y-4.63
X1.6Y-5.64
X1.6Y-6.65
X1.65Y0.21
X1.65Y-0.8
X1.65Y-1.81
X1.65Y-2.82
X1.65Y-3.83
X1.65Y-4.84
X1.65Y-5.85
X1.65Y-6.86
X1.67Y0.28
X1.67Y-0.73
X1.67Y-1.74
X1.67Y-2.75
X1.67Y-3.76
X1.67Y-4.77
X1.67Y-5.78
X1.67Y-6.79
X1.7Y0.47
X1.7Y-0.54
X1.7Y-1.55
X1.7Y-2.56
X1.7Y-3.57
X1.7Y-4.58
X1.7Y-5.59
X1.7Y-6.6
X1.855Y0.38
X1.855Y-0.63
X1.855Y-1.64
X1.855Y-2.65
X1.855Y-3.66
X1.855Y-4.67
X1.855Y-5.68
X1.855Y-6.69
X2.435Y0.62
X2.435Y-0.39
X2.435Y-1.4
X2.435Y-2.41
X2.435Y-3.42
X2.435Y-4.43
X2.435Y-5.44
X2.435Y-6.45
X2.45Y0.16
X2.45Y-0.85
X2.45Y-1.86
X2.45Y-2.87
X2.45Y-3.88
X2.45Y-4.89
X2.45Y-5.9
X2.45Y-6.91
X2.51Y0.42
X2.51Y-0.59
X2.51Y-1.6
X2.51Y-2.61
X2.51Y-3.62
X2.51Y-4.63
X2.51Y-5.64
X2.51Y-6.65
X2.5962Y0.4934
X2.5962Y-0.5166
X2.5962Y-1.5266
X2.5962Y-2.5366
X2.5962Y-3.5466
X2.5962Y-4.5566
X2.5962Y-5.5666
X2.5962Y-6.5766
X2.61Y0.42
X2.61Y-0.59
X2.61Y-1.6
X2.61Y-2.61
X2.61Y-3.62
X2.61Y-4.63
X2.61Y-5.64
X2.61Y-6.65
X2.66Y0.21
X2.66Y-0.8
X2.66Y-1.81
X2.66Y-2.82
X2.66Y-3.83
X2.66Y-4.84
X2.66Y-5.85
X2.66Y-6.86
X2.68Y0.28
X2.68Y-0.73
X2.68Y-1.74
X2.68Y-2.75
X2.68Y-3.76
X2.68Y-4.77
X2.68Y-5.78
X2.68Y-6.79
X2.71Y0.47
X2.71Y-0.54
X2.71Y-1.55
X2.71Y-2.56
X2.71Y-3.57
X2.71Y-4.58
X2.71Y-5.59
X2.71Y-6.6
X2.865Y0.38
X2.865Y-0.63
X2.865Y-1.64
X2.865Y-2.65
X2.865Y-3.66
X2.865Y-4.67
X2.865Y-5.68
X2.865Y-6.69
X3.445Y0.62
X3.445Y-0.39
X3.445Y-1.4
X3.445Y-2.41
X3.445Y-3.42
X3.445Y-4.43
X3.445Y-5.44
X3.445Y-6.45
X3.46Y0.16
X3.46Y-0.85
X3.46Y-1.86
X3.46Y-2.87
X3.46Y-3.88
X3.46Y-4.89
X3.46Y-5.9
X3.46Y-6.91
X3.52Y0.42
X3.52Y-0.59
X3.52Y-1.6
X3.52Y-2.61
X3.52Y-3.62
X3.52Y-4.63
X3.52Y-5.64
X3.52Y-6.65
X3.6062Y0.4934
X3.6062Y-0.5166
X3.6062Y-1.5266
X3.6062Y-2.5366
X3.6062Y-3.5466
X3.6062Y-4.5566
X3.6062Y-5.5666
X3.6062Y-6.5766
X3.62Y0.42
X3.62Y-0.59
X3.62Y-1.6
X3.62Y-2.61
X3.62Y-3.62
X3.62Y-4.63
X3.62Y-5.64
X3.62Y-6.65
X3.67Y0.21
X3.67Y-0.8
X3.67Y-1.81
X3.67Y-2.82
X3.67Y-3.83
X3.67Y-4.84
X3.67Y-5.85
X3.67Y-6.86
X3.69Y0.28
X3.69Y-0.73
X3.69Y-1.74
X3.69Y-2.75
X3.69Y-3.76
X3.69Y-4.77
X3.69Y-5.78
X3.69Y-6.79
X3.72Y0.47
X3.72Y-0.54
X3.72Y-1.55
X3.72Y-2.56
X3.72Y-3.57
X3.72Y-4.58
X3.72Y-5.59
X3.72Y-6.6
X3.875Y0.38
X3.875Y-0.63
X3.875Y-1.64
X3.875Y-2.65
X3.875Y-3.66
X3.875Y-4.67
X3.875Y-5.68
X3.875Y-6.69
X4.455Y0.62
X4.455Y-0.39
X4.455Y-1.4
X4.455Y-2.41
X4.455Y-3.42
X4.455Y-4.43
X4.455Y-5.44
X4.455Y-6.45
X4.47Y0.16
X4.47Y-0.85
X4.47Y-1.86
X4.47Y-2.87
X4.47Y-3.88
X4.47Y-4.89
X4.47Y-5.9
X4.47Y-6.91
X4.53Y0.42
X4.53Y-0.59
X4.53Y-1.6
X4.53Y-2.61
X4.53Y-3.62
X4.53Y-4.63
X4.53Y-5.64
X4.53Y-6.65
X4.6162Y0.4934
X4.6162Y-0.5166
X4.6162Y-1.5266
X4.6162Y-2.5366
X4.6162Y-3.5466
X4.6162Y-4.5566
X4.6162Y-5.5666
X4.6162Y-6.5766
X4.63Y0.42
X4.63Y-0.59
X4.63Y-1.6
X4.63Y-2.61
X4.63Y-3.62
X4.63Y-4.63
X4.63Y-5.64
X4.63Y-6.65
X4.68Y0.21
X4.68Y-0.8
X4.68Y-1.81
X4.68Y-2.82
X4.68Y-3.83
X4.68Y-4.84
X4.68Y-5.85
X4.68Y-6.86
X4.7Y0.28
X4.7Y-0.73
X4.7Y-1.74
X4.7Y-2.75
X4.7Y-3.76
X4.7Y-4.77
X4.7Y-5.78
X4.7Y-6.79
X4.73Y0.47
X4.73Y-0.54
X4.73Y-1.55
X4.73Y-2.56
X4.73Y-3.57
X4.73Y-4.58
X4.73Y-5.59
X4.73Y-6.6
X4.885Y0.38
X4.885Y-0.63
X4.885Y-1.64
X4.885Y-2.65
X4.885Y-3.66
X4.885Y-4.67
X4.885Y-5.68
X4.885Y-6.69
X5.465Y0.62
X5.465Y-0.39
X5.465Y-1.4
X5.465Y-2.41
X5.465Y-3.42
X5.465Y-4.43
X5.465Y-5.44
X5.465Y-6.45
X5.48Y0.16
X5.48Y-0.85
X5.48Y-1.86
X5.48Y-2.87
X5.48Y-3.88
X5.48Y-4.89
X5.48Y-5.9
X5.48Y-6.91
X5.54Y0.42
X5.54Y-0.59
X5.54Y-1.6
X5.54Y-2.61
X5.54Y-3.62
X5.54Y-4.63
X5.54Y-5.64
X5.54Y-6.65
X5.6262Y0.4934
X5.6262Y-0.5166
X5.6262Y-1.5266
X5.6262Y-2.5366
X5.6262Y-3.5466
X5.6262Y-4.5566
X5.6262Y-5.5666
X5.6262Y-6.5766
X5.64Y0.42
X5.64Y-0.59
X5.64Y-1.6
X5.64Y-2.61
X5.64Y-3.62
X5.64Y-4.63
X5.64Y-5.64
X5.64Y-6.65
X5.69Y0.21
X5.69Y-0.8
X5.69Y-1.81
X5.69Y-2.82
X5.69Y-3.83
X5.69Y-4.84
X5.69Y-5.85
X5.69Y-6.86
X5.71Y0.28
X5.71Y-0.73
X5.71Y-1.74
X5.71Y-2.75
X5.71Y-3.76
X5.71Y-4.77
X5.71Y-5.78
X5.71Y-6.79
X5.74Y0.47
X5.74Y-0.54
X5.74Y-1.55
X5.74Y-2.56
X5.74Y-3.57
X5.74Y-4.58
X5.74Y-5.59
X5.74Y-6.6
X5.895Y0.38
X5.895Y-0.63
X5.895Y-1.64
X5.895Y-2.65
X5.895Y-3.66
X5.895Y-4.67
X5.895Y-5.68
X5.895Y-6.69
T2
X1.5Y0.02
X1.5Y-0.99
X1.5Y-2.
X1.5Y-3.01
X1.5Y-4.02
X1.5Y-5.03
X1.5Y-6.04
X1.5Y-7.05
X1.6Y0.02
X1.6Y-0.99
X1.6Y-2.
X1.6Y-3.01
X1.6Y-4.02
X1.6Y-5.03
X1.6Y-6.04
X1.6Y-7.05
X1.7Y0.02
X1.7Y-0.99
X1.7Y-2.
X1.7Y-3.01
X1.7Y-4.02
X1.7Y-5.03
X1.7Y-6.04
X1.7Y-7.05
X1.8Y0.02
X1.8Y-0.99
X1.8Y-2.
X1.8Y-3.01
X1.8Y-4.02
X1.8Y-5.03
X1.8Y-6.04
X1.8Y-7.05
X1.9Y0.02
X1.9Y-0.99
X1.9Y-2.
X1.9Y-3.01
X1.9Y-4.02
X1.9Y-5.03
X1.9Y-6.04
X1.9Y-7.05
X2.51Y0.02
X2.51Y-0.99
X2.51Y-2.
X2.51Y-3.01
X2.51Y-4.02
X2.51Y-5.03
X2.51Y-6.04
X2.51Y-7.05
X2.61Y0.02
X2.61Y-0.99
X2.61Y-2.
X2.61Y-3.01
X2.61Y-4.02
X2.61Y-5.03
X2.61Y-6.04
X2.61Y-7.05
X2.71Y0.02
X2.71Y-0.99
X2.71Y-2.
X2.71Y-3.01
X2.71Y-4.02
X2.71Y-5.03
X2.71Y-6.04
X2.71Y-7.05
X2.81Y0.02
X2.81Y-0.99
X2.81Y-2.
X2.81Y-3.01
X2.81Y-4.02
X2.81Y-5.03
X2.81Y-6.04
X2.81Y-7.05
X2.91Y0.02
X2.91Y-0.99
X2.91Y-2.
X2.91Y-3.01
X2.91Y-4.02
X2.91Y-5.03
X2.91Y-6.04
X2.91Y-7.05
X3.52Y0.02
X3.52Y-0.99
X3.52Y-2.
X3.52Y-3.01
X3.52Y-4.02
X3.52Y-5.03
X3.52Y-6.04
X3.52Y-7.05
X3.62Y0.02
X3.62Y-0.99
X3.62Y-2.
X3.62Y-3.01
X3.62Y-4.02
X3.62Y-5.03
X3.62Y-6.04
X3.62Y-7.05
X3.72Y0.02
X3.72Y-0.99
X3.72Y-2.
X3.72Y-3.01
X3.72Y-4.02
X3.72Y-5.03
X3.72Y-6.04
X3.72Y-7.05
X3.82Y0.02
X3.82Y-0.99
X3.82Y-2.
X3.82Y-3.01
X3.82Y-4.02
X3.82Y-5.03
X3.82Y-6.04
X3.82Y-7.05
X3.92Y0.02
X3.92Y-0.99
X3.92Y-2.
X3.92Y-3.01
X3.92Y-4.02
X3.92Y-5.03
X3.92Y-6.04
X3.92Y-7.05
X4.53Y0.02
X4.53Y-0.99
X4.53Y-2.
X4.53Y-3.01
X4.53Y-4.02
X4.53Y-5.03
X4.53Y-6.04
X4.53Y-7.05
X4.63Y0.02
X4.63Y-0.99
X4.63Y-2.
X4.63Y-3.01
X4.63Y-4.02
X4.63Y-5.03
X4.63Y-6.04
X4.63Y-7.05
X4.73Y0.02
X4.73Y-0.99
X4.73Y-2.
X4.73Y-3.01
X4.73Y-4.02
X4.73Y-5.03
X4.73Y-6.04
X4.73Y-7.05
X4.83Y0.02
X4.83Y-0.99
X4.83Y-2.
X4.83Y-3.01
X4.83Y-4.02
X4.83Y-5.03
X4.83Y-6.04
X4.83Y-7.05
X4.93Y0.02
X4.93Y-0.99
X4.93Y-2.
X4.93Y-3.01
X4.93Y-4.02
X4.93Y-5.03
X4.93Y-6.04
X4.93Y-7.05
X5.54Y0.02
X5.54Y-0.99
X5.54Y-2.
X5.54Y-3.01
X5.54Y-4.02
X5.54Y-5.03
X5.54Y-6.04
X5.54Y-7.05
X5.64Y0.02
X5.64Y-0.99
X5.64Y-2.
X5.64Y-3.01
X5.64Y-4.02
X5.64Y-5.03
X5.64Y-6.04
X5.64Y-7.05
X5.74Y0.02
X5.74Y-0.99
X5.74Y-2.
X5.74Y-3.01
X5.74Y-4.02
X5.74Y-5.03
X5.74Y-6.04
X5.74Y-7.05
X5.84Y0.02
X5.84Y-0.99
X5.84Y-2.
X5.84Y-3.01
X5.84Y-4.02
X5.84Y-5.03
X5.84Y-6.04
X5.84Y-7.05
X5.94Y0.02
X5.94Y-0.99
X5.94Y-2.
X5.94Y-3.01
X5.94Y-4.02
X5.94Y-5.03
X5.94Y-6.04
X5.94Y-7.05
T0
M30
