M48
;DRILL file {KiCad 4.0.6} date 01/12/18 11:12:29
;FORMAT={-:-/ absolute / inch / decimal}
FMAT,2
INCH,TZ
T1C0.130
%
G90
G05
M72
T1
X1.3Y0.87
X1.3Y-0.14
X1.3Y-1.15
X1.3Y-2.16
X1.3Y-3.17
X1.3Y-4.18
X1.3Y-5.19
X1.3Y-6.2
X2.1Y0.87
X2.1Y-0.14
X2.1Y-1.15
X2.1Y-2.16
X2.1Y-3.17
X2.1Y-4.18
X2.1Y-5.19
X2.1Y-6.2
X2.31Y0.87
X2.31Y-0.14
X2.31Y-1.15
X2.31Y-2.16
X2.31Y-3.17
X2.31Y-4.18
X2.31Y-5.19
X2.31Y-6.2
X3.11Y0.87
X3.11Y-0.14
X3.11Y-1.15
X3.11Y-2.16
X3.11Y-3.17
X3.11Y-4.18
X3.11Y-5.19
X3.11Y-6.2
X3.32Y0.87
X3.32Y-0.14
X3.32Y-1.15
X3.32Y-2.16
X3.32Y-3.17
X3.32Y-4.18
X3.32Y-5.19
X3.32Y-6.2
X4.12Y0.87
X4.12Y-0.14
X4.12Y-1.15
X4.12Y-2.16
X4.12Y-3.17
X4.12Y-4.18
X4.12Y-5.19
X4.12Y-6.2
X4.33Y0.87
X4.33Y-0.14
X4.33Y-1.15
X4.33Y-2.16
X4.33Y-3.17
X4.33Y-4.18
X4.33Y-5.19
X4.33Y-6.2
X5.13Y0.87
X5.13Y-0.14
X5.13Y-1.15
X5.13Y-2.16
X5.13Y-3.17
X5.13Y-4.18
X5.13Y-5.19
X5.13Y-6.2
X5.34Y0.87
X5.34Y-0.14
X5.34Y-1.15
X5.34Y-2.16
X5.34Y-3.17
X5.34Y-4.18
X5.34Y-5.19
X5.34Y-6.2
X6.14Y0.87
X6.14Y-0.14
X6.14Y-1.15
X6.14Y-2.16
X6.14Y-3.17
X6.14Y-4.18
X6.14Y-5.19
X6.14Y-6.2
T0
M30
