G04 #@! TF.FileFunction,Profile,NP*
%FSLAX46Y46*%
G04 Gerber Fmt 4.6, Leading zero omitted, Abs format (unit mm)*
G04 Created by KiCad (PCBNEW 4.0.6) date 05/24/17 14:54:34*
%MOMM*%
%LPD*%
G01*
G04 APERTURE LIST*
%ADD10C,0.100000*%
%ADD11C,0.150000*%
G04 APERTURE END LIST*
D10*
D11*
X219456000Y-117094000D02*
X133350000Y-117094000D01*
X218948000Y-143002000D02*
X132842000Y-143002000D01*
X162814000Y-87376000D02*
X162814000Y-173482000D01*
X188722000Y-86995000D02*
X188722000Y-173101000D01*
X188976000Y-168656000D02*
X188976000Y-143256000D01*
X163068000Y-168656000D02*
X163068000Y-143256000D01*
X137160000Y-168656000D02*
X137160000Y-143256000D01*
X188976000Y-142748000D02*
X188976000Y-117348000D01*
X163068000Y-142748000D02*
X163068000Y-117348000D01*
X137160000Y-142748000D02*
X137160000Y-117348000D01*
X188976000Y-116840000D02*
X188976000Y-91440000D01*
X163068000Y-116840000D02*
X163068000Y-91440000D01*
X214376000Y-143256000D02*
X214376000Y-168656000D01*
X188468000Y-143256000D02*
X188468000Y-168656000D01*
X162560000Y-143256000D02*
X162560000Y-168656000D01*
X214376000Y-117348000D02*
X214376000Y-142748000D01*
X188468000Y-117348000D02*
X188468000Y-142748000D01*
X162560000Y-117348000D02*
X162560000Y-142748000D01*
X214376000Y-91440000D02*
X214376000Y-116840000D01*
X188468000Y-91440000D02*
X188468000Y-116840000D01*
X214376000Y-168656000D02*
X188976000Y-168656000D01*
X188468000Y-168656000D02*
X163068000Y-168656000D01*
X162560000Y-168656000D02*
X137160000Y-168656000D01*
X214376000Y-142748000D02*
X188976000Y-142748000D01*
X188468000Y-142748000D02*
X163068000Y-142748000D01*
X162560000Y-142748000D02*
X137160000Y-142748000D01*
X214376000Y-116840000D02*
X188976000Y-116840000D01*
X188468000Y-116840000D02*
X163068000Y-116840000D01*
X188976000Y-143256000D02*
X214376000Y-143256000D01*
X163068000Y-143256000D02*
X188468000Y-143256000D01*
X137160000Y-143256000D02*
X162560000Y-143256000D01*
X188976000Y-117348000D02*
X214376000Y-117348000D01*
X163068000Y-117348000D02*
X188468000Y-117348000D01*
X137160000Y-117348000D02*
X162560000Y-117348000D01*
X188976000Y-91440000D02*
X214376000Y-91440000D01*
X163068000Y-91440000D02*
X188468000Y-91440000D01*
X162560000Y-116840000D02*
X137160000Y-116840000D01*
X162560000Y-91440000D02*
X162560000Y-116840000D01*
X137160000Y-91440000D02*
X162560000Y-91440000D01*
X137160000Y-116840000D02*
X137160000Y-91440000D01*
M02*
