M48
;DRILL file {KiCad 4.0.6} date 05/24/17 14:54:37
;FORMAT={-:-/ absolute / inch / decimal}
FMAT,2
INCH,TZ
T1C0.016
T2C0.040
T3C0.130
%
G90
G05
M72
T1
X5.625Y-3.95
X5.625Y-4.97
X5.625Y-5.99
X5.7Y-4.15
X5.7Y-5.17
X5.7Y-6.19
X5.7862Y-4.0766
X5.7862Y-5.0966
X5.7862Y-6.1166
X5.8Y-4.15
X5.8Y-5.17
X5.8Y-6.19
X5.85Y-4.36
X5.85Y-5.38
X5.85Y-6.4
X5.9Y-4.1
X5.9Y-5.12
X5.9Y-6.14
X5.925Y-4.225
X5.925Y-5.245
X5.925Y-6.265
X6.05Y-4.3
X6.05Y-5.32
X6.05Y-6.34
X6.645Y-3.95
X6.645Y-4.97
X6.645Y-5.99
X6.72Y-4.15
X6.72Y-5.17
X6.72Y-6.19
X6.8062Y-4.0766
X6.8062Y-5.0966
X6.8062Y-6.1166
X6.82Y-4.15
X6.82Y-5.17
X6.82Y-6.19
X6.87Y-4.36
X6.87Y-5.38
X6.87Y-6.4
X6.92Y-4.1
X6.92Y-5.12
X6.92Y-6.14
X6.945Y-4.225
X6.945Y-5.245
X6.945Y-6.265
X7.07Y-4.3
X7.07Y-5.32
X7.07Y-6.34
X7.665Y-3.95
X7.665Y-4.97
X7.665Y-5.99
X7.74Y-4.15
X7.74Y-5.17
X7.74Y-6.19
X7.8262Y-4.0766
X7.8262Y-5.0966
X7.8262Y-6.1166
X7.84Y-4.15
X7.84Y-5.17
X7.84Y-6.19
X7.89Y-4.36
X7.89Y-5.38
X7.89Y-6.4
X7.94Y-4.1
X7.94Y-5.12
X7.94Y-6.14
X7.965Y-4.225
X7.965Y-5.245
X7.965Y-6.265
X8.09Y-4.3
X8.09Y-5.32
X8.09Y-6.34
T2
X5.7Y-4.55
X5.7Y-5.57
X5.7Y-6.59
X5.8Y-4.55
X5.8Y-5.57
X5.8Y-6.59
X5.9Y-4.55
X5.9Y-5.57
X5.9Y-6.59
X6.Y-4.55
X6.Y-5.57
X6.Y-6.59
X6.1Y-4.55
X6.1Y-5.57
X6.1Y-6.59
X6.72Y-4.55
X6.72Y-5.57
X6.72Y-6.59
X6.82Y-4.55
X6.82Y-5.57
X6.82Y-6.59
X6.92Y-4.55
X6.92Y-5.57
X6.92Y-6.59
X7.02Y-4.55
X7.02Y-5.57
X7.02Y-6.59
X7.12Y-4.55
X7.12Y-5.57
X7.12Y-6.59
X7.74Y-4.55
X7.74Y-5.57
X7.74Y-6.59
X7.84Y-4.55
X7.84Y-5.57
X7.84Y-6.59
X7.94Y-4.55
X7.94Y-5.57
X7.94Y-6.59
X8.04Y-4.55
X8.04Y-5.57
X8.04Y-6.59
X8.14Y-4.55
X8.14Y-5.57
X8.14Y-6.59
T3
X5.5Y-3.7
X5.5Y-4.72
X5.5Y-5.74
X6.3Y-3.7
X6.3Y-4.72
X6.3Y-5.74
X6.52Y-3.7
X6.52Y-4.72
X6.52Y-5.74
X7.32Y-3.7
X7.32Y-4.72
X7.32Y-5.74
X7.54Y-3.7
X7.54Y-4.72
X7.54Y-5.74
X8.34Y-3.7
X8.34Y-4.72
X8.34Y-5.74
T0
M30
