G04 #@! TF.FileFunction,Copper,L2,Bot,Signal*
%FSLAX46Y46*%
G04 Gerber Fmt 4.6, Leading zero omitted, Abs format (unit mm)*
G04 Created by KiCad (PCBNEW 4.0.6) date 05/24/17 14:54:34*
%MOMM*%
%LPD*%
G01*
G04 APERTURE LIST*
%ADD10C,0.100000*%
%ADD11C,1.879600*%
%ADD12C,0.700000*%
%ADD13C,0.250000*%
%ADD14C,0.203200*%
G04 APERTURE END LIST*
D10*
D11*
X206756000Y-167386000D03*
X180848000Y-167386000D03*
X154940000Y-167386000D03*
X206756000Y-141478000D03*
X180848000Y-141478000D03*
X154940000Y-141478000D03*
X206756000Y-115570000D03*
X180848000Y-115570000D03*
X196596000Y-167386000D03*
X199136000Y-167386000D03*
X201676000Y-167386000D03*
X204216000Y-167386000D03*
X170688000Y-167386000D03*
X173228000Y-167386000D03*
X175768000Y-167386000D03*
X178308000Y-167386000D03*
X144780000Y-167386000D03*
X147320000Y-167386000D03*
X149860000Y-167386000D03*
X152400000Y-167386000D03*
X196596000Y-141478000D03*
X199136000Y-141478000D03*
X201676000Y-141478000D03*
X204216000Y-141478000D03*
X170688000Y-141478000D03*
X173228000Y-141478000D03*
X175768000Y-141478000D03*
X178308000Y-141478000D03*
X144780000Y-141478000D03*
X147320000Y-141478000D03*
X149860000Y-141478000D03*
X152400000Y-141478000D03*
X196596000Y-115570000D03*
X199136000Y-115570000D03*
X201676000Y-115570000D03*
X204216000Y-115570000D03*
X170688000Y-115570000D03*
X173228000Y-115570000D03*
X175768000Y-115570000D03*
X178308000Y-115570000D03*
X154940000Y-115570000D03*
X144780000Y-115570000D03*
X147320000Y-115570000D03*
X149860000Y-115570000D03*
X152400000Y-115570000D03*
D12*
X194691000Y-152146000D03*
X168783000Y-152146000D03*
X142875000Y-152146000D03*
X194691000Y-126238000D03*
X168783000Y-126238000D03*
X142875000Y-126238000D03*
X194691000Y-100330000D03*
X168783000Y-100330000D03*
X201676000Y-155956000D03*
X175768000Y-155956000D03*
X149860000Y-155956000D03*
X201676000Y-130048000D03*
X175768000Y-130048000D03*
X149860000Y-130048000D03*
X201676000Y-104140000D03*
X175768000Y-104140000D03*
X205486000Y-161036000D03*
X179578000Y-161036000D03*
X153670000Y-161036000D03*
X205486000Y-135128000D03*
X179578000Y-135128000D03*
X153670000Y-135128000D03*
X205486000Y-109220000D03*
X179578000Y-109220000D03*
X153670000Y-109220000D03*
X149860000Y-104140000D03*
X142875000Y-100330000D03*
X202311000Y-159131000D03*
X176403000Y-159131000D03*
X150495000Y-159131000D03*
X202311000Y-133223000D03*
X176403000Y-133223000D03*
X150495000Y-133223000D03*
X202311000Y-107315000D03*
X176403000Y-107315000D03*
X150495000Y-107315000D03*
X200406000Y-162560000D03*
X174498000Y-162560000D03*
X148590000Y-162560000D03*
X200406000Y-136652000D03*
X174498000Y-136652000D03*
X148590000Y-136652000D03*
X200406000Y-110744000D03*
X174498000Y-110744000D03*
X148590000Y-110744000D03*
X196596000Y-157226000D03*
X170688000Y-157226000D03*
X144780000Y-157226000D03*
X196596000Y-131318000D03*
X170688000Y-131318000D03*
X144780000Y-131318000D03*
X196596000Y-105410000D03*
X170688000Y-105410000D03*
X199136000Y-157226000D03*
X173228000Y-157226000D03*
X147320000Y-157226000D03*
X199136000Y-131318000D03*
X173228000Y-131318000D03*
X147320000Y-131318000D03*
X199136000Y-105410000D03*
X173228000Y-105410000D03*
X144780000Y-105410000D03*
X147320000Y-105410000D03*
X198785702Y-155361000D03*
X172877702Y-155361000D03*
X146969702Y-155361000D03*
X198785702Y-129453000D03*
X172877702Y-129453000D03*
X146969702Y-129453000D03*
X198785702Y-103545000D03*
X172877702Y-103545000D03*
X146969702Y-103545000D03*
D13*
X199136000Y-162306000D02*
X202311000Y-159131000D01*
X173228000Y-162306000D02*
X176403000Y-159131000D01*
X147320000Y-162306000D02*
X150495000Y-159131000D01*
X199136000Y-136398000D02*
X202311000Y-133223000D01*
X173228000Y-136398000D02*
X176403000Y-133223000D01*
X147320000Y-136398000D02*
X150495000Y-133223000D01*
X199136000Y-110490000D02*
X202311000Y-107315000D01*
X173228000Y-110490000D02*
X176403000Y-107315000D01*
X199136000Y-167386000D02*
X199136000Y-162306000D01*
X173228000Y-167386000D02*
X173228000Y-162306000D01*
X147320000Y-167386000D02*
X147320000Y-162306000D01*
X199136000Y-141478000D02*
X199136000Y-136398000D01*
X173228000Y-141478000D02*
X173228000Y-136398000D01*
X147320000Y-141478000D02*
X147320000Y-136398000D01*
X199136000Y-115570000D02*
X199136000Y-110490000D01*
X173228000Y-115570000D02*
X173228000Y-110490000D01*
X147320000Y-115570000D02*
X147320000Y-110490000D01*
X147320000Y-110490000D02*
X150495000Y-107315000D01*
X201676000Y-164846000D02*
X200406000Y-163576000D01*
X175768000Y-164846000D02*
X174498000Y-163576000D01*
X149860000Y-164846000D02*
X148590000Y-163576000D01*
X201676000Y-138938000D02*
X200406000Y-137668000D01*
X175768000Y-138938000D02*
X174498000Y-137668000D01*
X149860000Y-138938000D02*
X148590000Y-137668000D01*
X201676000Y-113030000D02*
X200406000Y-111760000D01*
X175768000Y-113030000D02*
X174498000Y-111760000D01*
X200406000Y-163576000D02*
X200406000Y-162560000D01*
X174498000Y-163576000D02*
X174498000Y-162560000D01*
X148590000Y-163576000D02*
X148590000Y-162560000D01*
X200406000Y-137668000D02*
X200406000Y-136652000D01*
X174498000Y-137668000D02*
X174498000Y-136652000D01*
X148590000Y-137668000D02*
X148590000Y-136652000D01*
X200406000Y-111760000D02*
X200406000Y-110744000D01*
X174498000Y-111760000D02*
X174498000Y-110744000D01*
X201676000Y-167386000D02*
X201676000Y-164846000D01*
X175768000Y-167386000D02*
X175768000Y-164846000D01*
X149860000Y-167386000D02*
X149860000Y-164846000D01*
X201676000Y-141478000D02*
X201676000Y-138938000D01*
X175768000Y-141478000D02*
X175768000Y-138938000D01*
X149860000Y-141478000D02*
X149860000Y-138938000D01*
X201676000Y-115570000D02*
X201676000Y-113030000D01*
X175768000Y-115570000D02*
X175768000Y-113030000D01*
X148590000Y-111760000D02*
X148590000Y-110744000D01*
X149860000Y-113030000D02*
X148590000Y-111760000D01*
X149860000Y-115570000D02*
X149860000Y-113030000D01*
X196596000Y-157226000D02*
X199136000Y-157226000D01*
X170688000Y-157226000D02*
X173228000Y-157226000D01*
X144780000Y-157226000D02*
X147320000Y-157226000D01*
X196596000Y-131318000D02*
X199136000Y-131318000D01*
X170688000Y-131318000D02*
X173228000Y-131318000D01*
X144780000Y-131318000D02*
X147320000Y-131318000D01*
X196596000Y-105410000D02*
X199136000Y-105410000D01*
X170688000Y-105410000D02*
X173228000Y-105410000D01*
X144780000Y-105410000D02*
X147320000Y-105410000D01*
X206756000Y-167386000D02*
X206756000Y-157734000D01*
X180848000Y-167386000D02*
X180848000Y-157734000D01*
X154940000Y-167386000D02*
X154940000Y-157734000D01*
X206756000Y-141478000D02*
X206756000Y-131826000D01*
X180848000Y-141478000D02*
X180848000Y-131826000D01*
X154940000Y-141478000D02*
X154940000Y-131826000D01*
X206756000Y-115570000D02*
X206756000Y-105918000D01*
X180848000Y-115570000D02*
X180848000Y-105918000D01*
X199968702Y-154178000D02*
X198785702Y-155361000D01*
X174060702Y-154178000D02*
X172877702Y-155361000D01*
X148152702Y-154178000D02*
X146969702Y-155361000D01*
X199968702Y-128270000D02*
X198785702Y-129453000D01*
X174060702Y-128270000D02*
X172877702Y-129453000D01*
X148152702Y-128270000D02*
X146969702Y-129453000D01*
X199968702Y-102362000D02*
X198785702Y-103545000D01*
X174060702Y-102362000D02*
X172877702Y-103545000D01*
X206756000Y-157734000D02*
X203200000Y-154178000D01*
X180848000Y-157734000D02*
X177292000Y-154178000D01*
X154940000Y-157734000D02*
X151384000Y-154178000D01*
X206756000Y-131826000D02*
X203200000Y-128270000D01*
X180848000Y-131826000D02*
X177292000Y-128270000D01*
X154940000Y-131826000D02*
X151384000Y-128270000D01*
X206756000Y-105918000D02*
X203200000Y-102362000D01*
X180848000Y-105918000D02*
X177292000Y-102362000D01*
X203200000Y-154178000D02*
X199968702Y-154178000D01*
X177292000Y-154178000D02*
X174060702Y-154178000D01*
X151384000Y-154178000D02*
X148152702Y-154178000D01*
X203200000Y-128270000D02*
X199968702Y-128270000D01*
X177292000Y-128270000D02*
X174060702Y-128270000D01*
X151384000Y-128270000D02*
X148152702Y-128270000D01*
X203200000Y-102362000D02*
X199968702Y-102362000D01*
X177292000Y-102362000D02*
X174060702Y-102362000D01*
X148152702Y-102362000D02*
X146969702Y-103545000D01*
X154940000Y-115570000D02*
X154940000Y-105918000D01*
X154940000Y-105918000D02*
X151384000Y-102362000D01*
X151384000Y-102362000D02*
X148152702Y-102362000D01*
D14*
G36*
X162078600Y-116358600D02*
X156055501Y-116358600D01*
X156080588Y-116333557D01*
X156285966Y-115838951D01*
X156286434Y-115303399D01*
X156081919Y-114808435D01*
X155703557Y-114429412D01*
X155471400Y-114333012D01*
X155471400Y-105918000D01*
X155430950Y-105714642D01*
X155430950Y-105714641D01*
X155363274Y-105613358D01*
X155315757Y-105542243D01*
X155315754Y-105542241D01*
X151759757Y-101986243D01*
X151587358Y-101871050D01*
X151384000Y-101830599D01*
X151383995Y-101830600D01*
X148152707Y-101830600D01*
X148152702Y-101830599D01*
X147949344Y-101871050D01*
X147776945Y-101986243D01*
X147776943Y-101986246D01*
X146974585Y-102788604D01*
X146819905Y-102788469D01*
X146541795Y-102903381D01*
X146328831Y-103115974D01*
X146213433Y-103393883D01*
X146213171Y-103694797D01*
X146328083Y-103972907D01*
X146540676Y-104185871D01*
X146818585Y-104301269D01*
X147119499Y-104301531D01*
X147397609Y-104186619D01*
X147610573Y-103974026D01*
X147725971Y-103696117D01*
X147726107Y-103540109D01*
X148372815Y-102893400D01*
X151163886Y-102893400D01*
X154408600Y-106138113D01*
X154408600Y-114332979D01*
X154178435Y-114428081D01*
X153799412Y-114806443D01*
X153669935Y-115118258D01*
X153541919Y-114808435D01*
X153163557Y-114429412D01*
X152668951Y-114224034D01*
X152133399Y-114223566D01*
X151638435Y-114428081D01*
X151259412Y-114806443D01*
X151129935Y-115118258D01*
X151001919Y-114808435D01*
X150623557Y-114429412D01*
X150391400Y-114333012D01*
X150391400Y-113030000D01*
X150350950Y-112826642D01*
X150235757Y-112654243D01*
X150235754Y-112654241D01*
X149121400Y-111539886D01*
X149121400Y-111282306D01*
X149230871Y-111173026D01*
X149346269Y-110895117D01*
X149346531Y-110594203D01*
X149231619Y-110316093D01*
X149019026Y-110103129D01*
X148741117Y-109987731D01*
X148573929Y-109987585D01*
X150490118Y-108071396D01*
X150644797Y-108071531D01*
X150922907Y-107956619D01*
X151135871Y-107744026D01*
X151251269Y-107466117D01*
X151251531Y-107165203D01*
X151136619Y-106887093D01*
X150924026Y-106674129D01*
X150646117Y-106558731D01*
X150345203Y-106558469D01*
X150067093Y-106673381D01*
X149854129Y-106885974D01*
X149738731Y-107163883D01*
X149738595Y-107319891D01*
X146944243Y-110114243D01*
X146829050Y-110286642D01*
X146788599Y-110490000D01*
X146788600Y-110490005D01*
X146788600Y-114332979D01*
X146558435Y-114428081D01*
X146179412Y-114806443D01*
X146168266Y-114833286D01*
X146141666Y-114769068D01*
X145891286Y-114674240D01*
X144995526Y-115570000D01*
X145009669Y-115584143D01*
X144794143Y-115799669D01*
X144780000Y-115785526D01*
X144765858Y-115799669D01*
X144550332Y-115584143D01*
X144564474Y-115570000D01*
X143668714Y-114674240D01*
X143418334Y-114769068D01*
X143215481Y-115351122D01*
X143250812Y-115966499D01*
X143413226Y-116358600D01*
X137641400Y-116358600D01*
X137641400Y-114458714D01*
X143884240Y-114458714D01*
X144780000Y-115354474D01*
X145675760Y-114458714D01*
X145580932Y-114208334D01*
X144998878Y-114005481D01*
X144383501Y-114040812D01*
X143979068Y-114208334D01*
X143884240Y-114458714D01*
X137641400Y-114458714D01*
X137641400Y-105559797D01*
X144023469Y-105559797D01*
X144138381Y-105837907D01*
X144350974Y-106050871D01*
X144628883Y-106166269D01*
X144929797Y-106166531D01*
X145207907Y-106051619D01*
X145318318Y-105941400D01*
X146781694Y-105941400D01*
X146890974Y-106050871D01*
X147168883Y-106166269D01*
X147469797Y-106166531D01*
X147747907Y-106051619D01*
X147960871Y-105839026D01*
X148076269Y-105561117D01*
X148076531Y-105260203D01*
X147961619Y-104982093D01*
X147749026Y-104769129D01*
X147471117Y-104653731D01*
X147170203Y-104653469D01*
X146892093Y-104768381D01*
X146781682Y-104878600D01*
X145318306Y-104878600D01*
X145209026Y-104769129D01*
X144931117Y-104653731D01*
X144630203Y-104653469D01*
X144352093Y-104768381D01*
X144139129Y-104980974D01*
X144023731Y-105258883D01*
X144023469Y-105559797D01*
X137641400Y-105559797D01*
X137641400Y-94387447D01*
X137642244Y-94387447D01*
X137954804Y-95143901D01*
X138533055Y-95723162D01*
X139288962Y-96037042D01*
X140107447Y-96037756D01*
X140863901Y-95725196D01*
X141443162Y-95146945D01*
X141757042Y-94391038D01*
X141757045Y-94387447D01*
X157962244Y-94387447D01*
X158274804Y-95143901D01*
X158853055Y-95723162D01*
X159608962Y-96037042D01*
X160427447Y-96037756D01*
X161183901Y-95725196D01*
X161763162Y-95146945D01*
X162077042Y-94391038D01*
X162077756Y-93572553D01*
X161765196Y-92816099D01*
X161186945Y-92236838D01*
X160431038Y-91922958D01*
X159612553Y-91922244D01*
X158856099Y-92234804D01*
X158276838Y-92813055D01*
X157962958Y-93568962D01*
X157962244Y-94387447D01*
X141757045Y-94387447D01*
X141757756Y-93572553D01*
X141445196Y-92816099D01*
X140866945Y-92236838D01*
X140111038Y-91922958D01*
X139292553Y-91922244D01*
X138536099Y-92234804D01*
X137956838Y-92813055D01*
X137642958Y-93568962D01*
X137642244Y-94387447D01*
X137641400Y-94387447D01*
X137641400Y-91921400D01*
X162078600Y-91921400D01*
X162078600Y-116358600D01*
X162078600Y-116358600D01*
G37*
X162078600Y-116358600D02*
X156055501Y-116358600D01*
X156080588Y-116333557D01*
X156285966Y-115838951D01*
X156286434Y-115303399D01*
X156081919Y-114808435D01*
X155703557Y-114429412D01*
X155471400Y-114333012D01*
X155471400Y-105918000D01*
X155430950Y-105714642D01*
X155430950Y-105714641D01*
X155363274Y-105613358D01*
X155315757Y-105542243D01*
X155315754Y-105542241D01*
X151759757Y-101986243D01*
X151587358Y-101871050D01*
X151384000Y-101830599D01*
X151383995Y-101830600D01*
X148152707Y-101830600D01*
X148152702Y-101830599D01*
X147949344Y-101871050D01*
X147776945Y-101986243D01*
X147776943Y-101986246D01*
X146974585Y-102788604D01*
X146819905Y-102788469D01*
X146541795Y-102903381D01*
X146328831Y-103115974D01*
X146213433Y-103393883D01*
X146213171Y-103694797D01*
X146328083Y-103972907D01*
X146540676Y-104185871D01*
X146818585Y-104301269D01*
X147119499Y-104301531D01*
X147397609Y-104186619D01*
X147610573Y-103974026D01*
X147725971Y-103696117D01*
X147726107Y-103540109D01*
X148372815Y-102893400D01*
X151163886Y-102893400D01*
X154408600Y-106138113D01*
X154408600Y-114332979D01*
X154178435Y-114428081D01*
X153799412Y-114806443D01*
X153669935Y-115118258D01*
X153541919Y-114808435D01*
X153163557Y-114429412D01*
X152668951Y-114224034D01*
X152133399Y-114223566D01*
X151638435Y-114428081D01*
X151259412Y-114806443D01*
X151129935Y-115118258D01*
X151001919Y-114808435D01*
X150623557Y-114429412D01*
X150391400Y-114333012D01*
X150391400Y-113030000D01*
X150350950Y-112826642D01*
X150235757Y-112654243D01*
X150235754Y-112654241D01*
X149121400Y-111539886D01*
X149121400Y-111282306D01*
X149230871Y-111173026D01*
X149346269Y-110895117D01*
X149346531Y-110594203D01*
X149231619Y-110316093D01*
X149019026Y-110103129D01*
X148741117Y-109987731D01*
X148573929Y-109987585D01*
X150490118Y-108071396D01*
X150644797Y-108071531D01*
X150922907Y-107956619D01*
X151135871Y-107744026D01*
X151251269Y-107466117D01*
X151251531Y-107165203D01*
X151136619Y-106887093D01*
X150924026Y-106674129D01*
X150646117Y-106558731D01*
X150345203Y-106558469D01*
X150067093Y-106673381D01*
X149854129Y-106885974D01*
X149738731Y-107163883D01*
X149738595Y-107319891D01*
X146944243Y-110114243D01*
X146829050Y-110286642D01*
X146788599Y-110490000D01*
X146788600Y-110490005D01*
X146788600Y-114332979D01*
X146558435Y-114428081D01*
X146179412Y-114806443D01*
X146168266Y-114833286D01*
X146141666Y-114769068D01*
X145891286Y-114674240D01*
X144995526Y-115570000D01*
X145009669Y-115584143D01*
X144794143Y-115799669D01*
X144780000Y-115785526D01*
X144765858Y-115799669D01*
X144550332Y-115584143D01*
X144564474Y-115570000D01*
X143668714Y-114674240D01*
X143418334Y-114769068D01*
X143215481Y-115351122D01*
X143250812Y-115966499D01*
X143413226Y-116358600D01*
X137641400Y-116358600D01*
X137641400Y-114458714D01*
X143884240Y-114458714D01*
X144780000Y-115354474D01*
X145675760Y-114458714D01*
X145580932Y-114208334D01*
X144998878Y-114005481D01*
X144383501Y-114040812D01*
X143979068Y-114208334D01*
X143884240Y-114458714D01*
X137641400Y-114458714D01*
X137641400Y-105559797D01*
X144023469Y-105559797D01*
X144138381Y-105837907D01*
X144350974Y-106050871D01*
X144628883Y-106166269D01*
X144929797Y-106166531D01*
X145207907Y-106051619D01*
X145318318Y-105941400D01*
X146781694Y-105941400D01*
X146890974Y-106050871D01*
X147168883Y-106166269D01*
X147469797Y-106166531D01*
X147747907Y-106051619D01*
X147960871Y-105839026D01*
X148076269Y-105561117D01*
X148076531Y-105260203D01*
X147961619Y-104982093D01*
X147749026Y-104769129D01*
X147471117Y-104653731D01*
X147170203Y-104653469D01*
X146892093Y-104768381D01*
X146781682Y-104878600D01*
X145318306Y-104878600D01*
X145209026Y-104769129D01*
X144931117Y-104653731D01*
X144630203Y-104653469D01*
X144352093Y-104768381D01*
X144139129Y-104980974D01*
X144023731Y-105258883D01*
X144023469Y-105559797D01*
X137641400Y-105559797D01*
X137641400Y-94387447D01*
X137642244Y-94387447D01*
X137954804Y-95143901D01*
X138533055Y-95723162D01*
X139288962Y-96037042D01*
X140107447Y-96037756D01*
X140863901Y-95725196D01*
X141443162Y-95146945D01*
X141757042Y-94391038D01*
X141757045Y-94387447D01*
X157962244Y-94387447D01*
X158274804Y-95143901D01*
X158853055Y-95723162D01*
X159608962Y-96037042D01*
X160427447Y-96037756D01*
X161183901Y-95725196D01*
X161763162Y-95146945D01*
X162077042Y-94391038D01*
X162077756Y-93572553D01*
X161765196Y-92816099D01*
X161186945Y-92236838D01*
X160431038Y-91922958D01*
X159612553Y-91922244D01*
X158856099Y-92234804D01*
X158276838Y-92813055D01*
X157962958Y-93568962D01*
X157962244Y-94387447D01*
X141757045Y-94387447D01*
X141757756Y-93572553D01*
X141445196Y-92816099D01*
X140866945Y-92236838D01*
X140111038Y-91922958D01*
X139292553Y-91922244D01*
X138536099Y-92234804D01*
X137956838Y-92813055D01*
X137642958Y-93568962D01*
X137642244Y-94387447D01*
X137641400Y-94387447D01*
X137641400Y-91921400D01*
X162078600Y-91921400D01*
X162078600Y-116358600D01*
G36*
X187986600Y-116358600D02*
X181963501Y-116358600D01*
X181988588Y-116333557D01*
X182193966Y-115838951D01*
X182194434Y-115303399D01*
X181989919Y-114808435D01*
X181611557Y-114429412D01*
X181379400Y-114333012D01*
X181379400Y-105918000D01*
X181338950Y-105714642D01*
X181338950Y-105714641D01*
X181271274Y-105613358D01*
X181223757Y-105542243D01*
X181223754Y-105542241D01*
X177667757Y-101986243D01*
X177495358Y-101871050D01*
X177292000Y-101830599D01*
X177291995Y-101830600D01*
X174060707Y-101830600D01*
X174060702Y-101830599D01*
X173857344Y-101871050D01*
X173684945Y-101986243D01*
X173684943Y-101986246D01*
X172882585Y-102788604D01*
X172727905Y-102788469D01*
X172449795Y-102903381D01*
X172236831Y-103115974D01*
X172121433Y-103393883D01*
X172121171Y-103694797D01*
X172236083Y-103972907D01*
X172448676Y-104185871D01*
X172726585Y-104301269D01*
X173027499Y-104301531D01*
X173305609Y-104186619D01*
X173518573Y-103974026D01*
X173633971Y-103696117D01*
X173634107Y-103540109D01*
X174280815Y-102893400D01*
X177071886Y-102893400D01*
X180316600Y-106138113D01*
X180316600Y-114332979D01*
X180086435Y-114428081D01*
X179707412Y-114806443D01*
X179577935Y-115118258D01*
X179449919Y-114808435D01*
X179071557Y-114429412D01*
X178576951Y-114224034D01*
X178041399Y-114223566D01*
X177546435Y-114428081D01*
X177167412Y-114806443D01*
X177037935Y-115118258D01*
X176909919Y-114808435D01*
X176531557Y-114429412D01*
X176299400Y-114333012D01*
X176299400Y-113030000D01*
X176258950Y-112826642D01*
X176143757Y-112654243D01*
X176143754Y-112654241D01*
X175029400Y-111539886D01*
X175029400Y-111282306D01*
X175138871Y-111173026D01*
X175254269Y-110895117D01*
X175254531Y-110594203D01*
X175139619Y-110316093D01*
X174927026Y-110103129D01*
X174649117Y-109987731D01*
X174481929Y-109987585D01*
X176398118Y-108071396D01*
X176552797Y-108071531D01*
X176830907Y-107956619D01*
X177043871Y-107744026D01*
X177159269Y-107466117D01*
X177159531Y-107165203D01*
X177044619Y-106887093D01*
X176832026Y-106674129D01*
X176554117Y-106558731D01*
X176253203Y-106558469D01*
X175975093Y-106673381D01*
X175762129Y-106885974D01*
X175646731Y-107163883D01*
X175646595Y-107319891D01*
X172852243Y-110114243D01*
X172737050Y-110286642D01*
X172696599Y-110490000D01*
X172696600Y-110490005D01*
X172696600Y-114332979D01*
X172466435Y-114428081D01*
X172087412Y-114806443D01*
X172076266Y-114833286D01*
X172049666Y-114769068D01*
X171799286Y-114674240D01*
X170903526Y-115570000D01*
X170917669Y-115584143D01*
X170702143Y-115799669D01*
X170688000Y-115785526D01*
X170673858Y-115799669D01*
X170458332Y-115584143D01*
X170472474Y-115570000D01*
X169576714Y-114674240D01*
X169326334Y-114769068D01*
X169123481Y-115351122D01*
X169158812Y-115966499D01*
X169321226Y-116358600D01*
X163549400Y-116358600D01*
X163549400Y-114458714D01*
X169792240Y-114458714D01*
X170688000Y-115354474D01*
X171583760Y-114458714D01*
X171488932Y-114208334D01*
X170906878Y-114005481D01*
X170291501Y-114040812D01*
X169887068Y-114208334D01*
X169792240Y-114458714D01*
X163549400Y-114458714D01*
X163549400Y-105559797D01*
X169931469Y-105559797D01*
X170046381Y-105837907D01*
X170258974Y-106050871D01*
X170536883Y-106166269D01*
X170837797Y-106166531D01*
X171115907Y-106051619D01*
X171226318Y-105941400D01*
X172689694Y-105941400D01*
X172798974Y-106050871D01*
X173076883Y-106166269D01*
X173377797Y-106166531D01*
X173655907Y-106051619D01*
X173868871Y-105839026D01*
X173984269Y-105561117D01*
X173984531Y-105260203D01*
X173869619Y-104982093D01*
X173657026Y-104769129D01*
X173379117Y-104653731D01*
X173078203Y-104653469D01*
X172800093Y-104768381D01*
X172689682Y-104878600D01*
X171226306Y-104878600D01*
X171117026Y-104769129D01*
X170839117Y-104653731D01*
X170538203Y-104653469D01*
X170260093Y-104768381D01*
X170047129Y-104980974D01*
X169931731Y-105258883D01*
X169931469Y-105559797D01*
X163549400Y-105559797D01*
X163549400Y-94387447D01*
X163550244Y-94387447D01*
X163862804Y-95143901D01*
X164441055Y-95723162D01*
X165196962Y-96037042D01*
X166015447Y-96037756D01*
X166771901Y-95725196D01*
X167351162Y-95146945D01*
X167665042Y-94391038D01*
X167665045Y-94387447D01*
X183870244Y-94387447D01*
X184182804Y-95143901D01*
X184761055Y-95723162D01*
X185516962Y-96037042D01*
X186335447Y-96037756D01*
X187091901Y-95725196D01*
X187671162Y-95146945D01*
X187985042Y-94391038D01*
X187985756Y-93572553D01*
X187673196Y-92816099D01*
X187094945Y-92236838D01*
X186339038Y-91922958D01*
X185520553Y-91922244D01*
X184764099Y-92234804D01*
X184184838Y-92813055D01*
X183870958Y-93568962D01*
X183870244Y-94387447D01*
X167665045Y-94387447D01*
X167665756Y-93572553D01*
X167353196Y-92816099D01*
X166774945Y-92236838D01*
X166019038Y-91922958D01*
X165200553Y-91922244D01*
X164444099Y-92234804D01*
X163864838Y-92813055D01*
X163550958Y-93568962D01*
X163550244Y-94387447D01*
X163549400Y-94387447D01*
X163549400Y-91921400D01*
X187986600Y-91921400D01*
X187986600Y-116358600D01*
X187986600Y-116358600D01*
G37*
X187986600Y-116358600D02*
X181963501Y-116358600D01*
X181988588Y-116333557D01*
X182193966Y-115838951D01*
X182194434Y-115303399D01*
X181989919Y-114808435D01*
X181611557Y-114429412D01*
X181379400Y-114333012D01*
X181379400Y-105918000D01*
X181338950Y-105714642D01*
X181338950Y-105714641D01*
X181271274Y-105613358D01*
X181223757Y-105542243D01*
X181223754Y-105542241D01*
X177667757Y-101986243D01*
X177495358Y-101871050D01*
X177292000Y-101830599D01*
X177291995Y-101830600D01*
X174060707Y-101830600D01*
X174060702Y-101830599D01*
X173857344Y-101871050D01*
X173684945Y-101986243D01*
X173684943Y-101986246D01*
X172882585Y-102788604D01*
X172727905Y-102788469D01*
X172449795Y-102903381D01*
X172236831Y-103115974D01*
X172121433Y-103393883D01*
X172121171Y-103694797D01*
X172236083Y-103972907D01*
X172448676Y-104185871D01*
X172726585Y-104301269D01*
X173027499Y-104301531D01*
X173305609Y-104186619D01*
X173518573Y-103974026D01*
X173633971Y-103696117D01*
X173634107Y-103540109D01*
X174280815Y-102893400D01*
X177071886Y-102893400D01*
X180316600Y-106138113D01*
X180316600Y-114332979D01*
X180086435Y-114428081D01*
X179707412Y-114806443D01*
X179577935Y-115118258D01*
X179449919Y-114808435D01*
X179071557Y-114429412D01*
X178576951Y-114224034D01*
X178041399Y-114223566D01*
X177546435Y-114428081D01*
X177167412Y-114806443D01*
X177037935Y-115118258D01*
X176909919Y-114808435D01*
X176531557Y-114429412D01*
X176299400Y-114333012D01*
X176299400Y-113030000D01*
X176258950Y-112826642D01*
X176143757Y-112654243D01*
X176143754Y-112654241D01*
X175029400Y-111539886D01*
X175029400Y-111282306D01*
X175138871Y-111173026D01*
X175254269Y-110895117D01*
X175254531Y-110594203D01*
X175139619Y-110316093D01*
X174927026Y-110103129D01*
X174649117Y-109987731D01*
X174481929Y-109987585D01*
X176398118Y-108071396D01*
X176552797Y-108071531D01*
X176830907Y-107956619D01*
X177043871Y-107744026D01*
X177159269Y-107466117D01*
X177159531Y-107165203D01*
X177044619Y-106887093D01*
X176832026Y-106674129D01*
X176554117Y-106558731D01*
X176253203Y-106558469D01*
X175975093Y-106673381D01*
X175762129Y-106885974D01*
X175646731Y-107163883D01*
X175646595Y-107319891D01*
X172852243Y-110114243D01*
X172737050Y-110286642D01*
X172696599Y-110490000D01*
X172696600Y-110490005D01*
X172696600Y-114332979D01*
X172466435Y-114428081D01*
X172087412Y-114806443D01*
X172076266Y-114833286D01*
X172049666Y-114769068D01*
X171799286Y-114674240D01*
X170903526Y-115570000D01*
X170917669Y-115584143D01*
X170702143Y-115799669D01*
X170688000Y-115785526D01*
X170673858Y-115799669D01*
X170458332Y-115584143D01*
X170472474Y-115570000D01*
X169576714Y-114674240D01*
X169326334Y-114769068D01*
X169123481Y-115351122D01*
X169158812Y-115966499D01*
X169321226Y-116358600D01*
X163549400Y-116358600D01*
X163549400Y-114458714D01*
X169792240Y-114458714D01*
X170688000Y-115354474D01*
X171583760Y-114458714D01*
X171488932Y-114208334D01*
X170906878Y-114005481D01*
X170291501Y-114040812D01*
X169887068Y-114208334D01*
X169792240Y-114458714D01*
X163549400Y-114458714D01*
X163549400Y-105559797D01*
X169931469Y-105559797D01*
X170046381Y-105837907D01*
X170258974Y-106050871D01*
X170536883Y-106166269D01*
X170837797Y-106166531D01*
X171115907Y-106051619D01*
X171226318Y-105941400D01*
X172689694Y-105941400D01*
X172798974Y-106050871D01*
X173076883Y-106166269D01*
X173377797Y-106166531D01*
X173655907Y-106051619D01*
X173868871Y-105839026D01*
X173984269Y-105561117D01*
X173984531Y-105260203D01*
X173869619Y-104982093D01*
X173657026Y-104769129D01*
X173379117Y-104653731D01*
X173078203Y-104653469D01*
X172800093Y-104768381D01*
X172689682Y-104878600D01*
X171226306Y-104878600D01*
X171117026Y-104769129D01*
X170839117Y-104653731D01*
X170538203Y-104653469D01*
X170260093Y-104768381D01*
X170047129Y-104980974D01*
X169931731Y-105258883D01*
X169931469Y-105559797D01*
X163549400Y-105559797D01*
X163549400Y-94387447D01*
X163550244Y-94387447D01*
X163862804Y-95143901D01*
X164441055Y-95723162D01*
X165196962Y-96037042D01*
X166015447Y-96037756D01*
X166771901Y-95725196D01*
X167351162Y-95146945D01*
X167665042Y-94391038D01*
X167665045Y-94387447D01*
X183870244Y-94387447D01*
X184182804Y-95143901D01*
X184761055Y-95723162D01*
X185516962Y-96037042D01*
X186335447Y-96037756D01*
X187091901Y-95725196D01*
X187671162Y-95146945D01*
X187985042Y-94391038D01*
X187985756Y-93572553D01*
X187673196Y-92816099D01*
X187094945Y-92236838D01*
X186339038Y-91922958D01*
X185520553Y-91922244D01*
X184764099Y-92234804D01*
X184184838Y-92813055D01*
X183870958Y-93568962D01*
X183870244Y-94387447D01*
X167665045Y-94387447D01*
X167665756Y-93572553D01*
X167353196Y-92816099D01*
X166774945Y-92236838D01*
X166019038Y-91922958D01*
X165200553Y-91922244D01*
X164444099Y-92234804D01*
X163864838Y-92813055D01*
X163550958Y-93568962D01*
X163550244Y-94387447D01*
X163549400Y-94387447D01*
X163549400Y-91921400D01*
X187986600Y-91921400D01*
X187986600Y-116358600D01*
G36*
X213894600Y-116358600D02*
X207871501Y-116358600D01*
X207896588Y-116333557D01*
X208101966Y-115838951D01*
X208102434Y-115303399D01*
X207897919Y-114808435D01*
X207519557Y-114429412D01*
X207287400Y-114333012D01*
X207287400Y-105918000D01*
X207246950Y-105714642D01*
X207246950Y-105714641D01*
X207179274Y-105613358D01*
X207131757Y-105542243D01*
X207131754Y-105542241D01*
X203575757Y-101986243D01*
X203403358Y-101871050D01*
X203200000Y-101830599D01*
X203199995Y-101830600D01*
X199968707Y-101830600D01*
X199968702Y-101830599D01*
X199765344Y-101871050D01*
X199592945Y-101986243D01*
X199592943Y-101986246D01*
X198790585Y-102788604D01*
X198635905Y-102788469D01*
X198357795Y-102903381D01*
X198144831Y-103115974D01*
X198029433Y-103393883D01*
X198029171Y-103694797D01*
X198144083Y-103972907D01*
X198356676Y-104185871D01*
X198634585Y-104301269D01*
X198935499Y-104301531D01*
X199213609Y-104186619D01*
X199426573Y-103974026D01*
X199541971Y-103696117D01*
X199542107Y-103540109D01*
X200188815Y-102893400D01*
X202979886Y-102893400D01*
X206224600Y-106138113D01*
X206224600Y-114332979D01*
X205994435Y-114428081D01*
X205615412Y-114806443D01*
X205485935Y-115118258D01*
X205357919Y-114808435D01*
X204979557Y-114429412D01*
X204484951Y-114224034D01*
X203949399Y-114223566D01*
X203454435Y-114428081D01*
X203075412Y-114806443D01*
X202945935Y-115118258D01*
X202817919Y-114808435D01*
X202439557Y-114429412D01*
X202207400Y-114333012D01*
X202207400Y-113030000D01*
X202166950Y-112826642D01*
X202051757Y-112654243D01*
X202051754Y-112654241D01*
X200937400Y-111539886D01*
X200937400Y-111282306D01*
X201046871Y-111173026D01*
X201162269Y-110895117D01*
X201162531Y-110594203D01*
X201047619Y-110316093D01*
X200835026Y-110103129D01*
X200557117Y-109987731D01*
X200389929Y-109987585D01*
X202306118Y-108071396D01*
X202460797Y-108071531D01*
X202738907Y-107956619D01*
X202951871Y-107744026D01*
X203067269Y-107466117D01*
X203067531Y-107165203D01*
X202952619Y-106887093D01*
X202740026Y-106674129D01*
X202462117Y-106558731D01*
X202161203Y-106558469D01*
X201883093Y-106673381D01*
X201670129Y-106885974D01*
X201554731Y-107163883D01*
X201554595Y-107319891D01*
X198760243Y-110114243D01*
X198645050Y-110286642D01*
X198604599Y-110490000D01*
X198604600Y-110490005D01*
X198604600Y-114332979D01*
X198374435Y-114428081D01*
X197995412Y-114806443D01*
X197984266Y-114833286D01*
X197957666Y-114769068D01*
X197707286Y-114674240D01*
X196811526Y-115570000D01*
X196825669Y-115584143D01*
X196610143Y-115799669D01*
X196596000Y-115785526D01*
X196581858Y-115799669D01*
X196366332Y-115584143D01*
X196380474Y-115570000D01*
X195484714Y-114674240D01*
X195234334Y-114769068D01*
X195031481Y-115351122D01*
X195066812Y-115966499D01*
X195229226Y-116358600D01*
X189457400Y-116358600D01*
X189457400Y-114458714D01*
X195700240Y-114458714D01*
X196596000Y-115354474D01*
X197491760Y-114458714D01*
X197396932Y-114208334D01*
X196814878Y-114005481D01*
X196199501Y-114040812D01*
X195795068Y-114208334D01*
X195700240Y-114458714D01*
X189457400Y-114458714D01*
X189457400Y-105559797D01*
X195839469Y-105559797D01*
X195954381Y-105837907D01*
X196166974Y-106050871D01*
X196444883Y-106166269D01*
X196745797Y-106166531D01*
X197023907Y-106051619D01*
X197134318Y-105941400D01*
X198597694Y-105941400D01*
X198706974Y-106050871D01*
X198984883Y-106166269D01*
X199285797Y-106166531D01*
X199563907Y-106051619D01*
X199776871Y-105839026D01*
X199892269Y-105561117D01*
X199892531Y-105260203D01*
X199777619Y-104982093D01*
X199565026Y-104769129D01*
X199287117Y-104653731D01*
X198986203Y-104653469D01*
X198708093Y-104768381D01*
X198597682Y-104878600D01*
X197134306Y-104878600D01*
X197025026Y-104769129D01*
X196747117Y-104653731D01*
X196446203Y-104653469D01*
X196168093Y-104768381D01*
X195955129Y-104980974D01*
X195839731Y-105258883D01*
X195839469Y-105559797D01*
X189457400Y-105559797D01*
X189457400Y-94387447D01*
X189458244Y-94387447D01*
X189770804Y-95143901D01*
X190349055Y-95723162D01*
X191104962Y-96037042D01*
X191923447Y-96037756D01*
X192679901Y-95725196D01*
X193259162Y-95146945D01*
X193573042Y-94391038D01*
X193573045Y-94387447D01*
X209778244Y-94387447D01*
X210090804Y-95143901D01*
X210669055Y-95723162D01*
X211424962Y-96037042D01*
X212243447Y-96037756D01*
X212999901Y-95725196D01*
X213579162Y-95146945D01*
X213893042Y-94391038D01*
X213893756Y-93572553D01*
X213581196Y-92816099D01*
X213002945Y-92236838D01*
X212247038Y-91922958D01*
X211428553Y-91922244D01*
X210672099Y-92234804D01*
X210092838Y-92813055D01*
X209778958Y-93568962D01*
X209778244Y-94387447D01*
X193573045Y-94387447D01*
X193573756Y-93572553D01*
X193261196Y-92816099D01*
X192682945Y-92236838D01*
X191927038Y-91922958D01*
X191108553Y-91922244D01*
X190352099Y-92234804D01*
X189772838Y-92813055D01*
X189458958Y-93568962D01*
X189458244Y-94387447D01*
X189457400Y-94387447D01*
X189457400Y-91921400D01*
X213894600Y-91921400D01*
X213894600Y-116358600D01*
X213894600Y-116358600D01*
G37*
X213894600Y-116358600D02*
X207871501Y-116358600D01*
X207896588Y-116333557D01*
X208101966Y-115838951D01*
X208102434Y-115303399D01*
X207897919Y-114808435D01*
X207519557Y-114429412D01*
X207287400Y-114333012D01*
X207287400Y-105918000D01*
X207246950Y-105714642D01*
X207246950Y-105714641D01*
X207179274Y-105613358D01*
X207131757Y-105542243D01*
X207131754Y-105542241D01*
X203575757Y-101986243D01*
X203403358Y-101871050D01*
X203200000Y-101830599D01*
X203199995Y-101830600D01*
X199968707Y-101830600D01*
X199968702Y-101830599D01*
X199765344Y-101871050D01*
X199592945Y-101986243D01*
X199592943Y-101986246D01*
X198790585Y-102788604D01*
X198635905Y-102788469D01*
X198357795Y-102903381D01*
X198144831Y-103115974D01*
X198029433Y-103393883D01*
X198029171Y-103694797D01*
X198144083Y-103972907D01*
X198356676Y-104185871D01*
X198634585Y-104301269D01*
X198935499Y-104301531D01*
X199213609Y-104186619D01*
X199426573Y-103974026D01*
X199541971Y-103696117D01*
X199542107Y-103540109D01*
X200188815Y-102893400D01*
X202979886Y-102893400D01*
X206224600Y-106138113D01*
X206224600Y-114332979D01*
X205994435Y-114428081D01*
X205615412Y-114806443D01*
X205485935Y-115118258D01*
X205357919Y-114808435D01*
X204979557Y-114429412D01*
X204484951Y-114224034D01*
X203949399Y-114223566D01*
X203454435Y-114428081D01*
X203075412Y-114806443D01*
X202945935Y-115118258D01*
X202817919Y-114808435D01*
X202439557Y-114429412D01*
X202207400Y-114333012D01*
X202207400Y-113030000D01*
X202166950Y-112826642D01*
X202051757Y-112654243D01*
X202051754Y-112654241D01*
X200937400Y-111539886D01*
X200937400Y-111282306D01*
X201046871Y-111173026D01*
X201162269Y-110895117D01*
X201162531Y-110594203D01*
X201047619Y-110316093D01*
X200835026Y-110103129D01*
X200557117Y-109987731D01*
X200389929Y-109987585D01*
X202306118Y-108071396D01*
X202460797Y-108071531D01*
X202738907Y-107956619D01*
X202951871Y-107744026D01*
X203067269Y-107466117D01*
X203067531Y-107165203D01*
X202952619Y-106887093D01*
X202740026Y-106674129D01*
X202462117Y-106558731D01*
X202161203Y-106558469D01*
X201883093Y-106673381D01*
X201670129Y-106885974D01*
X201554731Y-107163883D01*
X201554595Y-107319891D01*
X198760243Y-110114243D01*
X198645050Y-110286642D01*
X198604599Y-110490000D01*
X198604600Y-110490005D01*
X198604600Y-114332979D01*
X198374435Y-114428081D01*
X197995412Y-114806443D01*
X197984266Y-114833286D01*
X197957666Y-114769068D01*
X197707286Y-114674240D01*
X196811526Y-115570000D01*
X196825669Y-115584143D01*
X196610143Y-115799669D01*
X196596000Y-115785526D01*
X196581858Y-115799669D01*
X196366332Y-115584143D01*
X196380474Y-115570000D01*
X195484714Y-114674240D01*
X195234334Y-114769068D01*
X195031481Y-115351122D01*
X195066812Y-115966499D01*
X195229226Y-116358600D01*
X189457400Y-116358600D01*
X189457400Y-114458714D01*
X195700240Y-114458714D01*
X196596000Y-115354474D01*
X197491760Y-114458714D01*
X197396932Y-114208334D01*
X196814878Y-114005481D01*
X196199501Y-114040812D01*
X195795068Y-114208334D01*
X195700240Y-114458714D01*
X189457400Y-114458714D01*
X189457400Y-105559797D01*
X195839469Y-105559797D01*
X195954381Y-105837907D01*
X196166974Y-106050871D01*
X196444883Y-106166269D01*
X196745797Y-106166531D01*
X197023907Y-106051619D01*
X197134318Y-105941400D01*
X198597694Y-105941400D01*
X198706974Y-106050871D01*
X198984883Y-106166269D01*
X199285797Y-106166531D01*
X199563907Y-106051619D01*
X199776871Y-105839026D01*
X199892269Y-105561117D01*
X199892531Y-105260203D01*
X199777619Y-104982093D01*
X199565026Y-104769129D01*
X199287117Y-104653731D01*
X198986203Y-104653469D01*
X198708093Y-104768381D01*
X198597682Y-104878600D01*
X197134306Y-104878600D01*
X197025026Y-104769129D01*
X196747117Y-104653731D01*
X196446203Y-104653469D01*
X196168093Y-104768381D01*
X195955129Y-104980974D01*
X195839731Y-105258883D01*
X195839469Y-105559797D01*
X189457400Y-105559797D01*
X189457400Y-94387447D01*
X189458244Y-94387447D01*
X189770804Y-95143901D01*
X190349055Y-95723162D01*
X191104962Y-96037042D01*
X191923447Y-96037756D01*
X192679901Y-95725196D01*
X193259162Y-95146945D01*
X193573042Y-94391038D01*
X193573045Y-94387447D01*
X209778244Y-94387447D01*
X210090804Y-95143901D01*
X210669055Y-95723162D01*
X211424962Y-96037042D01*
X212243447Y-96037756D01*
X212999901Y-95725196D01*
X213579162Y-95146945D01*
X213893042Y-94391038D01*
X213893756Y-93572553D01*
X213581196Y-92816099D01*
X213002945Y-92236838D01*
X212247038Y-91922958D01*
X211428553Y-91922244D01*
X210672099Y-92234804D01*
X210092838Y-92813055D01*
X209778958Y-93568962D01*
X209778244Y-94387447D01*
X193573045Y-94387447D01*
X193573756Y-93572553D01*
X193261196Y-92816099D01*
X192682945Y-92236838D01*
X191927038Y-91922958D01*
X191108553Y-91922244D01*
X190352099Y-92234804D01*
X189772838Y-92813055D01*
X189458958Y-93568962D01*
X189458244Y-94387447D01*
X189457400Y-94387447D01*
X189457400Y-91921400D01*
X213894600Y-91921400D01*
X213894600Y-116358600D01*
G36*
X162078600Y-142266600D02*
X156055501Y-142266600D01*
X156080588Y-142241557D01*
X156285966Y-141746951D01*
X156286434Y-141211399D01*
X156081919Y-140716435D01*
X155703557Y-140337412D01*
X155471400Y-140241012D01*
X155471400Y-131826000D01*
X155430950Y-131622642D01*
X155430950Y-131622641D01*
X155363274Y-131521358D01*
X155315757Y-131450243D01*
X155315754Y-131450241D01*
X151759757Y-127894243D01*
X151587358Y-127779050D01*
X151384000Y-127738599D01*
X151383995Y-127738600D01*
X148152707Y-127738600D01*
X148152702Y-127738599D01*
X147949344Y-127779050D01*
X147776945Y-127894243D01*
X147776943Y-127894246D01*
X146974585Y-128696604D01*
X146819905Y-128696469D01*
X146541795Y-128811381D01*
X146328831Y-129023974D01*
X146213433Y-129301883D01*
X146213171Y-129602797D01*
X146328083Y-129880907D01*
X146540676Y-130093871D01*
X146818585Y-130209269D01*
X147119499Y-130209531D01*
X147397609Y-130094619D01*
X147610573Y-129882026D01*
X147725971Y-129604117D01*
X147726107Y-129448109D01*
X148372815Y-128801400D01*
X151163886Y-128801400D01*
X154408600Y-132046113D01*
X154408600Y-140240979D01*
X154178435Y-140336081D01*
X153799412Y-140714443D01*
X153669935Y-141026258D01*
X153541919Y-140716435D01*
X153163557Y-140337412D01*
X152668951Y-140132034D01*
X152133399Y-140131566D01*
X151638435Y-140336081D01*
X151259412Y-140714443D01*
X151129935Y-141026258D01*
X151001919Y-140716435D01*
X150623557Y-140337412D01*
X150391400Y-140241012D01*
X150391400Y-138938000D01*
X150350950Y-138734642D01*
X150235757Y-138562243D01*
X150235754Y-138562241D01*
X149121400Y-137447886D01*
X149121400Y-137190306D01*
X149230871Y-137081026D01*
X149346269Y-136803117D01*
X149346531Y-136502203D01*
X149231619Y-136224093D01*
X149019026Y-136011129D01*
X148741117Y-135895731D01*
X148573929Y-135895585D01*
X150490118Y-133979396D01*
X150644797Y-133979531D01*
X150922907Y-133864619D01*
X151135871Y-133652026D01*
X151251269Y-133374117D01*
X151251531Y-133073203D01*
X151136619Y-132795093D01*
X150924026Y-132582129D01*
X150646117Y-132466731D01*
X150345203Y-132466469D01*
X150067093Y-132581381D01*
X149854129Y-132793974D01*
X149738731Y-133071883D01*
X149738595Y-133227891D01*
X146944243Y-136022243D01*
X146829050Y-136194642D01*
X146788599Y-136398000D01*
X146788600Y-136398005D01*
X146788600Y-140240979D01*
X146558435Y-140336081D01*
X146179412Y-140714443D01*
X146168266Y-140741286D01*
X146141666Y-140677068D01*
X145891286Y-140582240D01*
X144995526Y-141478000D01*
X145009669Y-141492143D01*
X144794143Y-141707669D01*
X144780000Y-141693526D01*
X144765858Y-141707669D01*
X144550332Y-141492143D01*
X144564474Y-141478000D01*
X143668714Y-140582240D01*
X143418334Y-140677068D01*
X143215481Y-141259122D01*
X143250812Y-141874499D01*
X143413226Y-142266600D01*
X137641400Y-142266600D01*
X137641400Y-140366714D01*
X143884240Y-140366714D01*
X144780000Y-141262474D01*
X145675760Y-140366714D01*
X145580932Y-140116334D01*
X144998878Y-139913481D01*
X144383501Y-139948812D01*
X143979068Y-140116334D01*
X143884240Y-140366714D01*
X137641400Y-140366714D01*
X137641400Y-131467797D01*
X144023469Y-131467797D01*
X144138381Y-131745907D01*
X144350974Y-131958871D01*
X144628883Y-132074269D01*
X144929797Y-132074531D01*
X145207907Y-131959619D01*
X145318318Y-131849400D01*
X146781694Y-131849400D01*
X146890974Y-131958871D01*
X147168883Y-132074269D01*
X147469797Y-132074531D01*
X147747907Y-131959619D01*
X147960871Y-131747026D01*
X148076269Y-131469117D01*
X148076531Y-131168203D01*
X147961619Y-130890093D01*
X147749026Y-130677129D01*
X147471117Y-130561731D01*
X147170203Y-130561469D01*
X146892093Y-130676381D01*
X146781682Y-130786600D01*
X145318306Y-130786600D01*
X145209026Y-130677129D01*
X144931117Y-130561731D01*
X144630203Y-130561469D01*
X144352093Y-130676381D01*
X144139129Y-130888974D01*
X144023731Y-131166883D01*
X144023469Y-131467797D01*
X137641400Y-131467797D01*
X137641400Y-120295447D01*
X137642244Y-120295447D01*
X137954804Y-121051901D01*
X138533055Y-121631162D01*
X139288962Y-121945042D01*
X140107447Y-121945756D01*
X140863901Y-121633196D01*
X141443162Y-121054945D01*
X141757042Y-120299038D01*
X141757045Y-120295447D01*
X157962244Y-120295447D01*
X158274804Y-121051901D01*
X158853055Y-121631162D01*
X159608962Y-121945042D01*
X160427447Y-121945756D01*
X161183901Y-121633196D01*
X161763162Y-121054945D01*
X162077042Y-120299038D01*
X162077756Y-119480553D01*
X161765196Y-118724099D01*
X161186945Y-118144838D01*
X160431038Y-117830958D01*
X159612553Y-117830244D01*
X158856099Y-118142804D01*
X158276838Y-118721055D01*
X157962958Y-119476962D01*
X157962244Y-120295447D01*
X141757045Y-120295447D01*
X141757756Y-119480553D01*
X141445196Y-118724099D01*
X140866945Y-118144838D01*
X140111038Y-117830958D01*
X139292553Y-117830244D01*
X138536099Y-118142804D01*
X137956838Y-118721055D01*
X137642958Y-119476962D01*
X137642244Y-120295447D01*
X137641400Y-120295447D01*
X137641400Y-117829400D01*
X162078600Y-117829400D01*
X162078600Y-142266600D01*
X162078600Y-142266600D01*
G37*
X162078600Y-142266600D02*
X156055501Y-142266600D01*
X156080588Y-142241557D01*
X156285966Y-141746951D01*
X156286434Y-141211399D01*
X156081919Y-140716435D01*
X155703557Y-140337412D01*
X155471400Y-140241012D01*
X155471400Y-131826000D01*
X155430950Y-131622642D01*
X155430950Y-131622641D01*
X155363274Y-131521358D01*
X155315757Y-131450243D01*
X155315754Y-131450241D01*
X151759757Y-127894243D01*
X151587358Y-127779050D01*
X151384000Y-127738599D01*
X151383995Y-127738600D01*
X148152707Y-127738600D01*
X148152702Y-127738599D01*
X147949344Y-127779050D01*
X147776945Y-127894243D01*
X147776943Y-127894246D01*
X146974585Y-128696604D01*
X146819905Y-128696469D01*
X146541795Y-128811381D01*
X146328831Y-129023974D01*
X146213433Y-129301883D01*
X146213171Y-129602797D01*
X146328083Y-129880907D01*
X146540676Y-130093871D01*
X146818585Y-130209269D01*
X147119499Y-130209531D01*
X147397609Y-130094619D01*
X147610573Y-129882026D01*
X147725971Y-129604117D01*
X147726107Y-129448109D01*
X148372815Y-128801400D01*
X151163886Y-128801400D01*
X154408600Y-132046113D01*
X154408600Y-140240979D01*
X154178435Y-140336081D01*
X153799412Y-140714443D01*
X153669935Y-141026258D01*
X153541919Y-140716435D01*
X153163557Y-140337412D01*
X152668951Y-140132034D01*
X152133399Y-140131566D01*
X151638435Y-140336081D01*
X151259412Y-140714443D01*
X151129935Y-141026258D01*
X151001919Y-140716435D01*
X150623557Y-140337412D01*
X150391400Y-140241012D01*
X150391400Y-138938000D01*
X150350950Y-138734642D01*
X150235757Y-138562243D01*
X150235754Y-138562241D01*
X149121400Y-137447886D01*
X149121400Y-137190306D01*
X149230871Y-137081026D01*
X149346269Y-136803117D01*
X149346531Y-136502203D01*
X149231619Y-136224093D01*
X149019026Y-136011129D01*
X148741117Y-135895731D01*
X148573929Y-135895585D01*
X150490118Y-133979396D01*
X150644797Y-133979531D01*
X150922907Y-133864619D01*
X151135871Y-133652026D01*
X151251269Y-133374117D01*
X151251531Y-133073203D01*
X151136619Y-132795093D01*
X150924026Y-132582129D01*
X150646117Y-132466731D01*
X150345203Y-132466469D01*
X150067093Y-132581381D01*
X149854129Y-132793974D01*
X149738731Y-133071883D01*
X149738595Y-133227891D01*
X146944243Y-136022243D01*
X146829050Y-136194642D01*
X146788599Y-136398000D01*
X146788600Y-136398005D01*
X146788600Y-140240979D01*
X146558435Y-140336081D01*
X146179412Y-140714443D01*
X146168266Y-140741286D01*
X146141666Y-140677068D01*
X145891286Y-140582240D01*
X144995526Y-141478000D01*
X145009669Y-141492143D01*
X144794143Y-141707669D01*
X144780000Y-141693526D01*
X144765858Y-141707669D01*
X144550332Y-141492143D01*
X144564474Y-141478000D01*
X143668714Y-140582240D01*
X143418334Y-140677068D01*
X143215481Y-141259122D01*
X143250812Y-141874499D01*
X143413226Y-142266600D01*
X137641400Y-142266600D01*
X137641400Y-140366714D01*
X143884240Y-140366714D01*
X144780000Y-141262474D01*
X145675760Y-140366714D01*
X145580932Y-140116334D01*
X144998878Y-139913481D01*
X144383501Y-139948812D01*
X143979068Y-140116334D01*
X143884240Y-140366714D01*
X137641400Y-140366714D01*
X137641400Y-131467797D01*
X144023469Y-131467797D01*
X144138381Y-131745907D01*
X144350974Y-131958871D01*
X144628883Y-132074269D01*
X144929797Y-132074531D01*
X145207907Y-131959619D01*
X145318318Y-131849400D01*
X146781694Y-131849400D01*
X146890974Y-131958871D01*
X147168883Y-132074269D01*
X147469797Y-132074531D01*
X147747907Y-131959619D01*
X147960871Y-131747026D01*
X148076269Y-131469117D01*
X148076531Y-131168203D01*
X147961619Y-130890093D01*
X147749026Y-130677129D01*
X147471117Y-130561731D01*
X147170203Y-130561469D01*
X146892093Y-130676381D01*
X146781682Y-130786600D01*
X145318306Y-130786600D01*
X145209026Y-130677129D01*
X144931117Y-130561731D01*
X144630203Y-130561469D01*
X144352093Y-130676381D01*
X144139129Y-130888974D01*
X144023731Y-131166883D01*
X144023469Y-131467797D01*
X137641400Y-131467797D01*
X137641400Y-120295447D01*
X137642244Y-120295447D01*
X137954804Y-121051901D01*
X138533055Y-121631162D01*
X139288962Y-121945042D01*
X140107447Y-121945756D01*
X140863901Y-121633196D01*
X141443162Y-121054945D01*
X141757042Y-120299038D01*
X141757045Y-120295447D01*
X157962244Y-120295447D01*
X158274804Y-121051901D01*
X158853055Y-121631162D01*
X159608962Y-121945042D01*
X160427447Y-121945756D01*
X161183901Y-121633196D01*
X161763162Y-121054945D01*
X162077042Y-120299038D01*
X162077756Y-119480553D01*
X161765196Y-118724099D01*
X161186945Y-118144838D01*
X160431038Y-117830958D01*
X159612553Y-117830244D01*
X158856099Y-118142804D01*
X158276838Y-118721055D01*
X157962958Y-119476962D01*
X157962244Y-120295447D01*
X141757045Y-120295447D01*
X141757756Y-119480553D01*
X141445196Y-118724099D01*
X140866945Y-118144838D01*
X140111038Y-117830958D01*
X139292553Y-117830244D01*
X138536099Y-118142804D01*
X137956838Y-118721055D01*
X137642958Y-119476962D01*
X137642244Y-120295447D01*
X137641400Y-120295447D01*
X137641400Y-117829400D01*
X162078600Y-117829400D01*
X162078600Y-142266600D01*
G36*
X187986600Y-142266600D02*
X181963501Y-142266600D01*
X181988588Y-142241557D01*
X182193966Y-141746951D01*
X182194434Y-141211399D01*
X181989919Y-140716435D01*
X181611557Y-140337412D01*
X181379400Y-140241012D01*
X181379400Y-131826000D01*
X181338950Y-131622642D01*
X181338950Y-131622641D01*
X181271274Y-131521358D01*
X181223757Y-131450243D01*
X181223754Y-131450241D01*
X177667757Y-127894243D01*
X177495358Y-127779050D01*
X177292000Y-127738599D01*
X177291995Y-127738600D01*
X174060707Y-127738600D01*
X174060702Y-127738599D01*
X173857344Y-127779050D01*
X173684945Y-127894243D01*
X173684943Y-127894246D01*
X172882585Y-128696604D01*
X172727905Y-128696469D01*
X172449795Y-128811381D01*
X172236831Y-129023974D01*
X172121433Y-129301883D01*
X172121171Y-129602797D01*
X172236083Y-129880907D01*
X172448676Y-130093871D01*
X172726585Y-130209269D01*
X173027499Y-130209531D01*
X173305609Y-130094619D01*
X173518573Y-129882026D01*
X173633971Y-129604117D01*
X173634107Y-129448109D01*
X174280815Y-128801400D01*
X177071886Y-128801400D01*
X180316600Y-132046113D01*
X180316600Y-140240979D01*
X180086435Y-140336081D01*
X179707412Y-140714443D01*
X179577935Y-141026258D01*
X179449919Y-140716435D01*
X179071557Y-140337412D01*
X178576951Y-140132034D01*
X178041399Y-140131566D01*
X177546435Y-140336081D01*
X177167412Y-140714443D01*
X177037935Y-141026258D01*
X176909919Y-140716435D01*
X176531557Y-140337412D01*
X176299400Y-140241012D01*
X176299400Y-138938000D01*
X176258950Y-138734642D01*
X176143757Y-138562243D01*
X176143754Y-138562241D01*
X175029400Y-137447886D01*
X175029400Y-137190306D01*
X175138871Y-137081026D01*
X175254269Y-136803117D01*
X175254531Y-136502203D01*
X175139619Y-136224093D01*
X174927026Y-136011129D01*
X174649117Y-135895731D01*
X174481929Y-135895585D01*
X176398118Y-133979396D01*
X176552797Y-133979531D01*
X176830907Y-133864619D01*
X177043871Y-133652026D01*
X177159269Y-133374117D01*
X177159531Y-133073203D01*
X177044619Y-132795093D01*
X176832026Y-132582129D01*
X176554117Y-132466731D01*
X176253203Y-132466469D01*
X175975093Y-132581381D01*
X175762129Y-132793974D01*
X175646731Y-133071883D01*
X175646595Y-133227891D01*
X172852243Y-136022243D01*
X172737050Y-136194642D01*
X172696599Y-136398000D01*
X172696600Y-136398005D01*
X172696600Y-140240979D01*
X172466435Y-140336081D01*
X172087412Y-140714443D01*
X172076266Y-140741286D01*
X172049666Y-140677068D01*
X171799286Y-140582240D01*
X170903526Y-141478000D01*
X170917669Y-141492143D01*
X170702143Y-141707669D01*
X170688000Y-141693526D01*
X170673858Y-141707669D01*
X170458332Y-141492143D01*
X170472474Y-141478000D01*
X169576714Y-140582240D01*
X169326334Y-140677068D01*
X169123481Y-141259122D01*
X169158812Y-141874499D01*
X169321226Y-142266600D01*
X163549400Y-142266600D01*
X163549400Y-140366714D01*
X169792240Y-140366714D01*
X170688000Y-141262474D01*
X171583760Y-140366714D01*
X171488932Y-140116334D01*
X170906878Y-139913481D01*
X170291501Y-139948812D01*
X169887068Y-140116334D01*
X169792240Y-140366714D01*
X163549400Y-140366714D01*
X163549400Y-131467797D01*
X169931469Y-131467797D01*
X170046381Y-131745907D01*
X170258974Y-131958871D01*
X170536883Y-132074269D01*
X170837797Y-132074531D01*
X171115907Y-131959619D01*
X171226318Y-131849400D01*
X172689694Y-131849400D01*
X172798974Y-131958871D01*
X173076883Y-132074269D01*
X173377797Y-132074531D01*
X173655907Y-131959619D01*
X173868871Y-131747026D01*
X173984269Y-131469117D01*
X173984531Y-131168203D01*
X173869619Y-130890093D01*
X173657026Y-130677129D01*
X173379117Y-130561731D01*
X173078203Y-130561469D01*
X172800093Y-130676381D01*
X172689682Y-130786600D01*
X171226306Y-130786600D01*
X171117026Y-130677129D01*
X170839117Y-130561731D01*
X170538203Y-130561469D01*
X170260093Y-130676381D01*
X170047129Y-130888974D01*
X169931731Y-131166883D01*
X169931469Y-131467797D01*
X163549400Y-131467797D01*
X163549400Y-120295447D01*
X163550244Y-120295447D01*
X163862804Y-121051901D01*
X164441055Y-121631162D01*
X165196962Y-121945042D01*
X166015447Y-121945756D01*
X166771901Y-121633196D01*
X167351162Y-121054945D01*
X167665042Y-120299038D01*
X167665045Y-120295447D01*
X183870244Y-120295447D01*
X184182804Y-121051901D01*
X184761055Y-121631162D01*
X185516962Y-121945042D01*
X186335447Y-121945756D01*
X187091901Y-121633196D01*
X187671162Y-121054945D01*
X187985042Y-120299038D01*
X187985756Y-119480553D01*
X187673196Y-118724099D01*
X187094945Y-118144838D01*
X186339038Y-117830958D01*
X185520553Y-117830244D01*
X184764099Y-118142804D01*
X184184838Y-118721055D01*
X183870958Y-119476962D01*
X183870244Y-120295447D01*
X167665045Y-120295447D01*
X167665756Y-119480553D01*
X167353196Y-118724099D01*
X166774945Y-118144838D01*
X166019038Y-117830958D01*
X165200553Y-117830244D01*
X164444099Y-118142804D01*
X163864838Y-118721055D01*
X163550958Y-119476962D01*
X163550244Y-120295447D01*
X163549400Y-120295447D01*
X163549400Y-117829400D01*
X187986600Y-117829400D01*
X187986600Y-142266600D01*
X187986600Y-142266600D01*
G37*
X187986600Y-142266600D02*
X181963501Y-142266600D01*
X181988588Y-142241557D01*
X182193966Y-141746951D01*
X182194434Y-141211399D01*
X181989919Y-140716435D01*
X181611557Y-140337412D01*
X181379400Y-140241012D01*
X181379400Y-131826000D01*
X181338950Y-131622642D01*
X181338950Y-131622641D01*
X181271274Y-131521358D01*
X181223757Y-131450243D01*
X181223754Y-131450241D01*
X177667757Y-127894243D01*
X177495358Y-127779050D01*
X177292000Y-127738599D01*
X177291995Y-127738600D01*
X174060707Y-127738600D01*
X174060702Y-127738599D01*
X173857344Y-127779050D01*
X173684945Y-127894243D01*
X173684943Y-127894246D01*
X172882585Y-128696604D01*
X172727905Y-128696469D01*
X172449795Y-128811381D01*
X172236831Y-129023974D01*
X172121433Y-129301883D01*
X172121171Y-129602797D01*
X172236083Y-129880907D01*
X172448676Y-130093871D01*
X172726585Y-130209269D01*
X173027499Y-130209531D01*
X173305609Y-130094619D01*
X173518573Y-129882026D01*
X173633971Y-129604117D01*
X173634107Y-129448109D01*
X174280815Y-128801400D01*
X177071886Y-128801400D01*
X180316600Y-132046113D01*
X180316600Y-140240979D01*
X180086435Y-140336081D01*
X179707412Y-140714443D01*
X179577935Y-141026258D01*
X179449919Y-140716435D01*
X179071557Y-140337412D01*
X178576951Y-140132034D01*
X178041399Y-140131566D01*
X177546435Y-140336081D01*
X177167412Y-140714443D01*
X177037935Y-141026258D01*
X176909919Y-140716435D01*
X176531557Y-140337412D01*
X176299400Y-140241012D01*
X176299400Y-138938000D01*
X176258950Y-138734642D01*
X176143757Y-138562243D01*
X176143754Y-138562241D01*
X175029400Y-137447886D01*
X175029400Y-137190306D01*
X175138871Y-137081026D01*
X175254269Y-136803117D01*
X175254531Y-136502203D01*
X175139619Y-136224093D01*
X174927026Y-136011129D01*
X174649117Y-135895731D01*
X174481929Y-135895585D01*
X176398118Y-133979396D01*
X176552797Y-133979531D01*
X176830907Y-133864619D01*
X177043871Y-133652026D01*
X177159269Y-133374117D01*
X177159531Y-133073203D01*
X177044619Y-132795093D01*
X176832026Y-132582129D01*
X176554117Y-132466731D01*
X176253203Y-132466469D01*
X175975093Y-132581381D01*
X175762129Y-132793974D01*
X175646731Y-133071883D01*
X175646595Y-133227891D01*
X172852243Y-136022243D01*
X172737050Y-136194642D01*
X172696599Y-136398000D01*
X172696600Y-136398005D01*
X172696600Y-140240979D01*
X172466435Y-140336081D01*
X172087412Y-140714443D01*
X172076266Y-140741286D01*
X172049666Y-140677068D01*
X171799286Y-140582240D01*
X170903526Y-141478000D01*
X170917669Y-141492143D01*
X170702143Y-141707669D01*
X170688000Y-141693526D01*
X170673858Y-141707669D01*
X170458332Y-141492143D01*
X170472474Y-141478000D01*
X169576714Y-140582240D01*
X169326334Y-140677068D01*
X169123481Y-141259122D01*
X169158812Y-141874499D01*
X169321226Y-142266600D01*
X163549400Y-142266600D01*
X163549400Y-140366714D01*
X169792240Y-140366714D01*
X170688000Y-141262474D01*
X171583760Y-140366714D01*
X171488932Y-140116334D01*
X170906878Y-139913481D01*
X170291501Y-139948812D01*
X169887068Y-140116334D01*
X169792240Y-140366714D01*
X163549400Y-140366714D01*
X163549400Y-131467797D01*
X169931469Y-131467797D01*
X170046381Y-131745907D01*
X170258974Y-131958871D01*
X170536883Y-132074269D01*
X170837797Y-132074531D01*
X171115907Y-131959619D01*
X171226318Y-131849400D01*
X172689694Y-131849400D01*
X172798974Y-131958871D01*
X173076883Y-132074269D01*
X173377797Y-132074531D01*
X173655907Y-131959619D01*
X173868871Y-131747026D01*
X173984269Y-131469117D01*
X173984531Y-131168203D01*
X173869619Y-130890093D01*
X173657026Y-130677129D01*
X173379117Y-130561731D01*
X173078203Y-130561469D01*
X172800093Y-130676381D01*
X172689682Y-130786600D01*
X171226306Y-130786600D01*
X171117026Y-130677129D01*
X170839117Y-130561731D01*
X170538203Y-130561469D01*
X170260093Y-130676381D01*
X170047129Y-130888974D01*
X169931731Y-131166883D01*
X169931469Y-131467797D01*
X163549400Y-131467797D01*
X163549400Y-120295447D01*
X163550244Y-120295447D01*
X163862804Y-121051901D01*
X164441055Y-121631162D01*
X165196962Y-121945042D01*
X166015447Y-121945756D01*
X166771901Y-121633196D01*
X167351162Y-121054945D01*
X167665042Y-120299038D01*
X167665045Y-120295447D01*
X183870244Y-120295447D01*
X184182804Y-121051901D01*
X184761055Y-121631162D01*
X185516962Y-121945042D01*
X186335447Y-121945756D01*
X187091901Y-121633196D01*
X187671162Y-121054945D01*
X187985042Y-120299038D01*
X187985756Y-119480553D01*
X187673196Y-118724099D01*
X187094945Y-118144838D01*
X186339038Y-117830958D01*
X185520553Y-117830244D01*
X184764099Y-118142804D01*
X184184838Y-118721055D01*
X183870958Y-119476962D01*
X183870244Y-120295447D01*
X167665045Y-120295447D01*
X167665756Y-119480553D01*
X167353196Y-118724099D01*
X166774945Y-118144838D01*
X166019038Y-117830958D01*
X165200553Y-117830244D01*
X164444099Y-118142804D01*
X163864838Y-118721055D01*
X163550958Y-119476962D01*
X163550244Y-120295447D01*
X163549400Y-120295447D01*
X163549400Y-117829400D01*
X187986600Y-117829400D01*
X187986600Y-142266600D01*
G36*
X213894600Y-142266600D02*
X207871501Y-142266600D01*
X207896588Y-142241557D01*
X208101966Y-141746951D01*
X208102434Y-141211399D01*
X207897919Y-140716435D01*
X207519557Y-140337412D01*
X207287400Y-140241012D01*
X207287400Y-131826000D01*
X207246950Y-131622642D01*
X207246950Y-131622641D01*
X207179274Y-131521358D01*
X207131757Y-131450243D01*
X207131754Y-131450241D01*
X203575757Y-127894243D01*
X203403358Y-127779050D01*
X203200000Y-127738599D01*
X203199995Y-127738600D01*
X199968707Y-127738600D01*
X199968702Y-127738599D01*
X199765344Y-127779050D01*
X199592945Y-127894243D01*
X199592943Y-127894246D01*
X198790585Y-128696604D01*
X198635905Y-128696469D01*
X198357795Y-128811381D01*
X198144831Y-129023974D01*
X198029433Y-129301883D01*
X198029171Y-129602797D01*
X198144083Y-129880907D01*
X198356676Y-130093871D01*
X198634585Y-130209269D01*
X198935499Y-130209531D01*
X199213609Y-130094619D01*
X199426573Y-129882026D01*
X199541971Y-129604117D01*
X199542107Y-129448109D01*
X200188815Y-128801400D01*
X202979886Y-128801400D01*
X206224600Y-132046113D01*
X206224600Y-140240979D01*
X205994435Y-140336081D01*
X205615412Y-140714443D01*
X205485935Y-141026258D01*
X205357919Y-140716435D01*
X204979557Y-140337412D01*
X204484951Y-140132034D01*
X203949399Y-140131566D01*
X203454435Y-140336081D01*
X203075412Y-140714443D01*
X202945935Y-141026258D01*
X202817919Y-140716435D01*
X202439557Y-140337412D01*
X202207400Y-140241012D01*
X202207400Y-138938000D01*
X202166950Y-138734642D01*
X202051757Y-138562243D01*
X202051754Y-138562241D01*
X200937400Y-137447886D01*
X200937400Y-137190306D01*
X201046871Y-137081026D01*
X201162269Y-136803117D01*
X201162531Y-136502203D01*
X201047619Y-136224093D01*
X200835026Y-136011129D01*
X200557117Y-135895731D01*
X200389929Y-135895585D01*
X202306118Y-133979396D01*
X202460797Y-133979531D01*
X202738907Y-133864619D01*
X202951871Y-133652026D01*
X203067269Y-133374117D01*
X203067531Y-133073203D01*
X202952619Y-132795093D01*
X202740026Y-132582129D01*
X202462117Y-132466731D01*
X202161203Y-132466469D01*
X201883093Y-132581381D01*
X201670129Y-132793974D01*
X201554731Y-133071883D01*
X201554595Y-133227891D01*
X198760243Y-136022243D01*
X198645050Y-136194642D01*
X198604599Y-136398000D01*
X198604600Y-136398005D01*
X198604600Y-140240979D01*
X198374435Y-140336081D01*
X197995412Y-140714443D01*
X197984266Y-140741286D01*
X197957666Y-140677068D01*
X197707286Y-140582240D01*
X196811526Y-141478000D01*
X196825669Y-141492143D01*
X196610143Y-141707669D01*
X196596000Y-141693526D01*
X196581858Y-141707669D01*
X196366332Y-141492143D01*
X196380474Y-141478000D01*
X195484714Y-140582240D01*
X195234334Y-140677068D01*
X195031481Y-141259122D01*
X195066812Y-141874499D01*
X195229226Y-142266600D01*
X189457400Y-142266600D01*
X189457400Y-140366714D01*
X195700240Y-140366714D01*
X196596000Y-141262474D01*
X197491760Y-140366714D01*
X197396932Y-140116334D01*
X196814878Y-139913481D01*
X196199501Y-139948812D01*
X195795068Y-140116334D01*
X195700240Y-140366714D01*
X189457400Y-140366714D01*
X189457400Y-131467797D01*
X195839469Y-131467797D01*
X195954381Y-131745907D01*
X196166974Y-131958871D01*
X196444883Y-132074269D01*
X196745797Y-132074531D01*
X197023907Y-131959619D01*
X197134318Y-131849400D01*
X198597694Y-131849400D01*
X198706974Y-131958871D01*
X198984883Y-132074269D01*
X199285797Y-132074531D01*
X199563907Y-131959619D01*
X199776871Y-131747026D01*
X199892269Y-131469117D01*
X199892531Y-131168203D01*
X199777619Y-130890093D01*
X199565026Y-130677129D01*
X199287117Y-130561731D01*
X198986203Y-130561469D01*
X198708093Y-130676381D01*
X198597682Y-130786600D01*
X197134306Y-130786600D01*
X197025026Y-130677129D01*
X196747117Y-130561731D01*
X196446203Y-130561469D01*
X196168093Y-130676381D01*
X195955129Y-130888974D01*
X195839731Y-131166883D01*
X195839469Y-131467797D01*
X189457400Y-131467797D01*
X189457400Y-120295447D01*
X189458244Y-120295447D01*
X189770804Y-121051901D01*
X190349055Y-121631162D01*
X191104962Y-121945042D01*
X191923447Y-121945756D01*
X192679901Y-121633196D01*
X193259162Y-121054945D01*
X193573042Y-120299038D01*
X193573045Y-120295447D01*
X209778244Y-120295447D01*
X210090804Y-121051901D01*
X210669055Y-121631162D01*
X211424962Y-121945042D01*
X212243447Y-121945756D01*
X212999901Y-121633196D01*
X213579162Y-121054945D01*
X213893042Y-120299038D01*
X213893756Y-119480553D01*
X213581196Y-118724099D01*
X213002945Y-118144838D01*
X212247038Y-117830958D01*
X211428553Y-117830244D01*
X210672099Y-118142804D01*
X210092838Y-118721055D01*
X209778958Y-119476962D01*
X209778244Y-120295447D01*
X193573045Y-120295447D01*
X193573756Y-119480553D01*
X193261196Y-118724099D01*
X192682945Y-118144838D01*
X191927038Y-117830958D01*
X191108553Y-117830244D01*
X190352099Y-118142804D01*
X189772838Y-118721055D01*
X189458958Y-119476962D01*
X189458244Y-120295447D01*
X189457400Y-120295447D01*
X189457400Y-117829400D01*
X213894600Y-117829400D01*
X213894600Y-142266600D01*
X213894600Y-142266600D01*
G37*
X213894600Y-142266600D02*
X207871501Y-142266600D01*
X207896588Y-142241557D01*
X208101966Y-141746951D01*
X208102434Y-141211399D01*
X207897919Y-140716435D01*
X207519557Y-140337412D01*
X207287400Y-140241012D01*
X207287400Y-131826000D01*
X207246950Y-131622642D01*
X207246950Y-131622641D01*
X207179274Y-131521358D01*
X207131757Y-131450243D01*
X207131754Y-131450241D01*
X203575757Y-127894243D01*
X203403358Y-127779050D01*
X203200000Y-127738599D01*
X203199995Y-127738600D01*
X199968707Y-127738600D01*
X199968702Y-127738599D01*
X199765344Y-127779050D01*
X199592945Y-127894243D01*
X199592943Y-127894246D01*
X198790585Y-128696604D01*
X198635905Y-128696469D01*
X198357795Y-128811381D01*
X198144831Y-129023974D01*
X198029433Y-129301883D01*
X198029171Y-129602797D01*
X198144083Y-129880907D01*
X198356676Y-130093871D01*
X198634585Y-130209269D01*
X198935499Y-130209531D01*
X199213609Y-130094619D01*
X199426573Y-129882026D01*
X199541971Y-129604117D01*
X199542107Y-129448109D01*
X200188815Y-128801400D01*
X202979886Y-128801400D01*
X206224600Y-132046113D01*
X206224600Y-140240979D01*
X205994435Y-140336081D01*
X205615412Y-140714443D01*
X205485935Y-141026258D01*
X205357919Y-140716435D01*
X204979557Y-140337412D01*
X204484951Y-140132034D01*
X203949399Y-140131566D01*
X203454435Y-140336081D01*
X203075412Y-140714443D01*
X202945935Y-141026258D01*
X202817919Y-140716435D01*
X202439557Y-140337412D01*
X202207400Y-140241012D01*
X202207400Y-138938000D01*
X202166950Y-138734642D01*
X202051757Y-138562243D01*
X202051754Y-138562241D01*
X200937400Y-137447886D01*
X200937400Y-137190306D01*
X201046871Y-137081026D01*
X201162269Y-136803117D01*
X201162531Y-136502203D01*
X201047619Y-136224093D01*
X200835026Y-136011129D01*
X200557117Y-135895731D01*
X200389929Y-135895585D01*
X202306118Y-133979396D01*
X202460797Y-133979531D01*
X202738907Y-133864619D01*
X202951871Y-133652026D01*
X203067269Y-133374117D01*
X203067531Y-133073203D01*
X202952619Y-132795093D01*
X202740026Y-132582129D01*
X202462117Y-132466731D01*
X202161203Y-132466469D01*
X201883093Y-132581381D01*
X201670129Y-132793974D01*
X201554731Y-133071883D01*
X201554595Y-133227891D01*
X198760243Y-136022243D01*
X198645050Y-136194642D01*
X198604599Y-136398000D01*
X198604600Y-136398005D01*
X198604600Y-140240979D01*
X198374435Y-140336081D01*
X197995412Y-140714443D01*
X197984266Y-140741286D01*
X197957666Y-140677068D01*
X197707286Y-140582240D01*
X196811526Y-141478000D01*
X196825669Y-141492143D01*
X196610143Y-141707669D01*
X196596000Y-141693526D01*
X196581858Y-141707669D01*
X196366332Y-141492143D01*
X196380474Y-141478000D01*
X195484714Y-140582240D01*
X195234334Y-140677068D01*
X195031481Y-141259122D01*
X195066812Y-141874499D01*
X195229226Y-142266600D01*
X189457400Y-142266600D01*
X189457400Y-140366714D01*
X195700240Y-140366714D01*
X196596000Y-141262474D01*
X197491760Y-140366714D01*
X197396932Y-140116334D01*
X196814878Y-139913481D01*
X196199501Y-139948812D01*
X195795068Y-140116334D01*
X195700240Y-140366714D01*
X189457400Y-140366714D01*
X189457400Y-131467797D01*
X195839469Y-131467797D01*
X195954381Y-131745907D01*
X196166974Y-131958871D01*
X196444883Y-132074269D01*
X196745797Y-132074531D01*
X197023907Y-131959619D01*
X197134318Y-131849400D01*
X198597694Y-131849400D01*
X198706974Y-131958871D01*
X198984883Y-132074269D01*
X199285797Y-132074531D01*
X199563907Y-131959619D01*
X199776871Y-131747026D01*
X199892269Y-131469117D01*
X199892531Y-131168203D01*
X199777619Y-130890093D01*
X199565026Y-130677129D01*
X199287117Y-130561731D01*
X198986203Y-130561469D01*
X198708093Y-130676381D01*
X198597682Y-130786600D01*
X197134306Y-130786600D01*
X197025026Y-130677129D01*
X196747117Y-130561731D01*
X196446203Y-130561469D01*
X196168093Y-130676381D01*
X195955129Y-130888974D01*
X195839731Y-131166883D01*
X195839469Y-131467797D01*
X189457400Y-131467797D01*
X189457400Y-120295447D01*
X189458244Y-120295447D01*
X189770804Y-121051901D01*
X190349055Y-121631162D01*
X191104962Y-121945042D01*
X191923447Y-121945756D01*
X192679901Y-121633196D01*
X193259162Y-121054945D01*
X193573042Y-120299038D01*
X193573045Y-120295447D01*
X209778244Y-120295447D01*
X210090804Y-121051901D01*
X210669055Y-121631162D01*
X211424962Y-121945042D01*
X212243447Y-121945756D01*
X212999901Y-121633196D01*
X213579162Y-121054945D01*
X213893042Y-120299038D01*
X213893756Y-119480553D01*
X213581196Y-118724099D01*
X213002945Y-118144838D01*
X212247038Y-117830958D01*
X211428553Y-117830244D01*
X210672099Y-118142804D01*
X210092838Y-118721055D01*
X209778958Y-119476962D01*
X209778244Y-120295447D01*
X193573045Y-120295447D01*
X193573756Y-119480553D01*
X193261196Y-118724099D01*
X192682945Y-118144838D01*
X191927038Y-117830958D01*
X191108553Y-117830244D01*
X190352099Y-118142804D01*
X189772838Y-118721055D01*
X189458958Y-119476962D01*
X189458244Y-120295447D01*
X189457400Y-120295447D01*
X189457400Y-117829400D01*
X213894600Y-117829400D01*
X213894600Y-142266600D01*
G36*
X162078600Y-168174600D02*
X156055501Y-168174600D01*
X156080588Y-168149557D01*
X156285966Y-167654951D01*
X156286434Y-167119399D01*
X156081919Y-166624435D01*
X155703557Y-166245412D01*
X155471400Y-166149012D01*
X155471400Y-157734000D01*
X155430950Y-157530642D01*
X155430950Y-157530641D01*
X155363274Y-157429358D01*
X155315757Y-157358243D01*
X155315754Y-157358241D01*
X151759757Y-153802243D01*
X151587358Y-153687050D01*
X151384000Y-153646599D01*
X151383995Y-153646600D01*
X148152707Y-153646600D01*
X148152702Y-153646599D01*
X147949344Y-153687050D01*
X147776945Y-153802243D01*
X147776943Y-153802246D01*
X146974585Y-154604604D01*
X146819905Y-154604469D01*
X146541795Y-154719381D01*
X146328831Y-154931974D01*
X146213433Y-155209883D01*
X146213171Y-155510797D01*
X146328083Y-155788907D01*
X146540676Y-156001871D01*
X146818585Y-156117269D01*
X147119499Y-156117531D01*
X147397609Y-156002619D01*
X147610573Y-155790026D01*
X147725971Y-155512117D01*
X147726107Y-155356109D01*
X148372815Y-154709400D01*
X151163886Y-154709400D01*
X154408600Y-157954113D01*
X154408600Y-166148979D01*
X154178435Y-166244081D01*
X153799412Y-166622443D01*
X153669935Y-166934258D01*
X153541919Y-166624435D01*
X153163557Y-166245412D01*
X152668951Y-166040034D01*
X152133399Y-166039566D01*
X151638435Y-166244081D01*
X151259412Y-166622443D01*
X151129935Y-166934258D01*
X151001919Y-166624435D01*
X150623557Y-166245412D01*
X150391400Y-166149012D01*
X150391400Y-164846000D01*
X150350950Y-164642642D01*
X150235757Y-164470243D01*
X150235754Y-164470241D01*
X149121400Y-163355886D01*
X149121400Y-163098306D01*
X149230871Y-162989026D01*
X149346269Y-162711117D01*
X149346531Y-162410203D01*
X149231619Y-162132093D01*
X149019026Y-161919129D01*
X148741117Y-161803731D01*
X148573929Y-161803585D01*
X150490118Y-159887396D01*
X150644797Y-159887531D01*
X150922907Y-159772619D01*
X151135871Y-159560026D01*
X151251269Y-159282117D01*
X151251531Y-158981203D01*
X151136619Y-158703093D01*
X150924026Y-158490129D01*
X150646117Y-158374731D01*
X150345203Y-158374469D01*
X150067093Y-158489381D01*
X149854129Y-158701974D01*
X149738731Y-158979883D01*
X149738595Y-159135891D01*
X146944243Y-161930243D01*
X146829050Y-162102642D01*
X146788599Y-162306000D01*
X146788600Y-162306005D01*
X146788600Y-166148979D01*
X146558435Y-166244081D01*
X146179412Y-166622443D01*
X146168266Y-166649286D01*
X146141666Y-166585068D01*
X145891286Y-166490240D01*
X144995526Y-167386000D01*
X145009669Y-167400143D01*
X144794143Y-167615669D01*
X144780000Y-167601526D01*
X144765858Y-167615669D01*
X144550332Y-167400143D01*
X144564474Y-167386000D01*
X143668714Y-166490240D01*
X143418334Y-166585068D01*
X143215481Y-167167122D01*
X143250812Y-167782499D01*
X143413226Y-168174600D01*
X137641400Y-168174600D01*
X137641400Y-166274714D01*
X143884240Y-166274714D01*
X144780000Y-167170474D01*
X145675760Y-166274714D01*
X145580932Y-166024334D01*
X144998878Y-165821481D01*
X144383501Y-165856812D01*
X143979068Y-166024334D01*
X143884240Y-166274714D01*
X137641400Y-166274714D01*
X137641400Y-157375797D01*
X144023469Y-157375797D01*
X144138381Y-157653907D01*
X144350974Y-157866871D01*
X144628883Y-157982269D01*
X144929797Y-157982531D01*
X145207907Y-157867619D01*
X145318318Y-157757400D01*
X146781694Y-157757400D01*
X146890974Y-157866871D01*
X147168883Y-157982269D01*
X147469797Y-157982531D01*
X147747907Y-157867619D01*
X147960871Y-157655026D01*
X148076269Y-157377117D01*
X148076531Y-157076203D01*
X147961619Y-156798093D01*
X147749026Y-156585129D01*
X147471117Y-156469731D01*
X147170203Y-156469469D01*
X146892093Y-156584381D01*
X146781682Y-156694600D01*
X145318306Y-156694600D01*
X145209026Y-156585129D01*
X144931117Y-156469731D01*
X144630203Y-156469469D01*
X144352093Y-156584381D01*
X144139129Y-156796974D01*
X144023731Y-157074883D01*
X144023469Y-157375797D01*
X137641400Y-157375797D01*
X137641400Y-146203447D01*
X137642244Y-146203447D01*
X137954804Y-146959901D01*
X138533055Y-147539162D01*
X139288962Y-147853042D01*
X140107447Y-147853756D01*
X140863901Y-147541196D01*
X141443162Y-146962945D01*
X141757042Y-146207038D01*
X141757045Y-146203447D01*
X157962244Y-146203447D01*
X158274804Y-146959901D01*
X158853055Y-147539162D01*
X159608962Y-147853042D01*
X160427447Y-147853756D01*
X161183901Y-147541196D01*
X161763162Y-146962945D01*
X162077042Y-146207038D01*
X162077756Y-145388553D01*
X161765196Y-144632099D01*
X161186945Y-144052838D01*
X160431038Y-143738958D01*
X159612553Y-143738244D01*
X158856099Y-144050804D01*
X158276838Y-144629055D01*
X157962958Y-145384962D01*
X157962244Y-146203447D01*
X141757045Y-146203447D01*
X141757756Y-145388553D01*
X141445196Y-144632099D01*
X140866945Y-144052838D01*
X140111038Y-143738958D01*
X139292553Y-143738244D01*
X138536099Y-144050804D01*
X137956838Y-144629055D01*
X137642958Y-145384962D01*
X137642244Y-146203447D01*
X137641400Y-146203447D01*
X137641400Y-143737400D01*
X162078600Y-143737400D01*
X162078600Y-168174600D01*
X162078600Y-168174600D01*
G37*
X162078600Y-168174600D02*
X156055501Y-168174600D01*
X156080588Y-168149557D01*
X156285966Y-167654951D01*
X156286434Y-167119399D01*
X156081919Y-166624435D01*
X155703557Y-166245412D01*
X155471400Y-166149012D01*
X155471400Y-157734000D01*
X155430950Y-157530642D01*
X155430950Y-157530641D01*
X155363274Y-157429358D01*
X155315757Y-157358243D01*
X155315754Y-157358241D01*
X151759757Y-153802243D01*
X151587358Y-153687050D01*
X151384000Y-153646599D01*
X151383995Y-153646600D01*
X148152707Y-153646600D01*
X148152702Y-153646599D01*
X147949344Y-153687050D01*
X147776945Y-153802243D01*
X147776943Y-153802246D01*
X146974585Y-154604604D01*
X146819905Y-154604469D01*
X146541795Y-154719381D01*
X146328831Y-154931974D01*
X146213433Y-155209883D01*
X146213171Y-155510797D01*
X146328083Y-155788907D01*
X146540676Y-156001871D01*
X146818585Y-156117269D01*
X147119499Y-156117531D01*
X147397609Y-156002619D01*
X147610573Y-155790026D01*
X147725971Y-155512117D01*
X147726107Y-155356109D01*
X148372815Y-154709400D01*
X151163886Y-154709400D01*
X154408600Y-157954113D01*
X154408600Y-166148979D01*
X154178435Y-166244081D01*
X153799412Y-166622443D01*
X153669935Y-166934258D01*
X153541919Y-166624435D01*
X153163557Y-166245412D01*
X152668951Y-166040034D01*
X152133399Y-166039566D01*
X151638435Y-166244081D01*
X151259412Y-166622443D01*
X151129935Y-166934258D01*
X151001919Y-166624435D01*
X150623557Y-166245412D01*
X150391400Y-166149012D01*
X150391400Y-164846000D01*
X150350950Y-164642642D01*
X150235757Y-164470243D01*
X150235754Y-164470241D01*
X149121400Y-163355886D01*
X149121400Y-163098306D01*
X149230871Y-162989026D01*
X149346269Y-162711117D01*
X149346531Y-162410203D01*
X149231619Y-162132093D01*
X149019026Y-161919129D01*
X148741117Y-161803731D01*
X148573929Y-161803585D01*
X150490118Y-159887396D01*
X150644797Y-159887531D01*
X150922907Y-159772619D01*
X151135871Y-159560026D01*
X151251269Y-159282117D01*
X151251531Y-158981203D01*
X151136619Y-158703093D01*
X150924026Y-158490129D01*
X150646117Y-158374731D01*
X150345203Y-158374469D01*
X150067093Y-158489381D01*
X149854129Y-158701974D01*
X149738731Y-158979883D01*
X149738595Y-159135891D01*
X146944243Y-161930243D01*
X146829050Y-162102642D01*
X146788599Y-162306000D01*
X146788600Y-162306005D01*
X146788600Y-166148979D01*
X146558435Y-166244081D01*
X146179412Y-166622443D01*
X146168266Y-166649286D01*
X146141666Y-166585068D01*
X145891286Y-166490240D01*
X144995526Y-167386000D01*
X145009669Y-167400143D01*
X144794143Y-167615669D01*
X144780000Y-167601526D01*
X144765858Y-167615669D01*
X144550332Y-167400143D01*
X144564474Y-167386000D01*
X143668714Y-166490240D01*
X143418334Y-166585068D01*
X143215481Y-167167122D01*
X143250812Y-167782499D01*
X143413226Y-168174600D01*
X137641400Y-168174600D01*
X137641400Y-166274714D01*
X143884240Y-166274714D01*
X144780000Y-167170474D01*
X145675760Y-166274714D01*
X145580932Y-166024334D01*
X144998878Y-165821481D01*
X144383501Y-165856812D01*
X143979068Y-166024334D01*
X143884240Y-166274714D01*
X137641400Y-166274714D01*
X137641400Y-157375797D01*
X144023469Y-157375797D01*
X144138381Y-157653907D01*
X144350974Y-157866871D01*
X144628883Y-157982269D01*
X144929797Y-157982531D01*
X145207907Y-157867619D01*
X145318318Y-157757400D01*
X146781694Y-157757400D01*
X146890974Y-157866871D01*
X147168883Y-157982269D01*
X147469797Y-157982531D01*
X147747907Y-157867619D01*
X147960871Y-157655026D01*
X148076269Y-157377117D01*
X148076531Y-157076203D01*
X147961619Y-156798093D01*
X147749026Y-156585129D01*
X147471117Y-156469731D01*
X147170203Y-156469469D01*
X146892093Y-156584381D01*
X146781682Y-156694600D01*
X145318306Y-156694600D01*
X145209026Y-156585129D01*
X144931117Y-156469731D01*
X144630203Y-156469469D01*
X144352093Y-156584381D01*
X144139129Y-156796974D01*
X144023731Y-157074883D01*
X144023469Y-157375797D01*
X137641400Y-157375797D01*
X137641400Y-146203447D01*
X137642244Y-146203447D01*
X137954804Y-146959901D01*
X138533055Y-147539162D01*
X139288962Y-147853042D01*
X140107447Y-147853756D01*
X140863901Y-147541196D01*
X141443162Y-146962945D01*
X141757042Y-146207038D01*
X141757045Y-146203447D01*
X157962244Y-146203447D01*
X158274804Y-146959901D01*
X158853055Y-147539162D01*
X159608962Y-147853042D01*
X160427447Y-147853756D01*
X161183901Y-147541196D01*
X161763162Y-146962945D01*
X162077042Y-146207038D01*
X162077756Y-145388553D01*
X161765196Y-144632099D01*
X161186945Y-144052838D01*
X160431038Y-143738958D01*
X159612553Y-143738244D01*
X158856099Y-144050804D01*
X158276838Y-144629055D01*
X157962958Y-145384962D01*
X157962244Y-146203447D01*
X141757045Y-146203447D01*
X141757756Y-145388553D01*
X141445196Y-144632099D01*
X140866945Y-144052838D01*
X140111038Y-143738958D01*
X139292553Y-143738244D01*
X138536099Y-144050804D01*
X137956838Y-144629055D01*
X137642958Y-145384962D01*
X137642244Y-146203447D01*
X137641400Y-146203447D01*
X137641400Y-143737400D01*
X162078600Y-143737400D01*
X162078600Y-168174600D01*
G36*
X187986600Y-168174600D02*
X181963501Y-168174600D01*
X181988588Y-168149557D01*
X182193966Y-167654951D01*
X182194434Y-167119399D01*
X181989919Y-166624435D01*
X181611557Y-166245412D01*
X181379400Y-166149012D01*
X181379400Y-157734000D01*
X181338950Y-157530642D01*
X181338950Y-157530641D01*
X181271274Y-157429358D01*
X181223757Y-157358243D01*
X181223754Y-157358241D01*
X177667757Y-153802243D01*
X177495358Y-153687050D01*
X177292000Y-153646599D01*
X177291995Y-153646600D01*
X174060707Y-153646600D01*
X174060702Y-153646599D01*
X173857344Y-153687050D01*
X173684945Y-153802243D01*
X173684943Y-153802246D01*
X172882585Y-154604604D01*
X172727905Y-154604469D01*
X172449795Y-154719381D01*
X172236831Y-154931974D01*
X172121433Y-155209883D01*
X172121171Y-155510797D01*
X172236083Y-155788907D01*
X172448676Y-156001871D01*
X172726585Y-156117269D01*
X173027499Y-156117531D01*
X173305609Y-156002619D01*
X173518573Y-155790026D01*
X173633971Y-155512117D01*
X173634107Y-155356109D01*
X174280815Y-154709400D01*
X177071886Y-154709400D01*
X180316600Y-157954113D01*
X180316600Y-166148979D01*
X180086435Y-166244081D01*
X179707412Y-166622443D01*
X179577935Y-166934258D01*
X179449919Y-166624435D01*
X179071557Y-166245412D01*
X178576951Y-166040034D01*
X178041399Y-166039566D01*
X177546435Y-166244081D01*
X177167412Y-166622443D01*
X177037935Y-166934258D01*
X176909919Y-166624435D01*
X176531557Y-166245412D01*
X176299400Y-166149012D01*
X176299400Y-164846000D01*
X176258950Y-164642642D01*
X176143757Y-164470243D01*
X176143754Y-164470241D01*
X175029400Y-163355886D01*
X175029400Y-163098306D01*
X175138871Y-162989026D01*
X175254269Y-162711117D01*
X175254531Y-162410203D01*
X175139619Y-162132093D01*
X174927026Y-161919129D01*
X174649117Y-161803731D01*
X174481929Y-161803585D01*
X176398118Y-159887396D01*
X176552797Y-159887531D01*
X176830907Y-159772619D01*
X177043871Y-159560026D01*
X177159269Y-159282117D01*
X177159531Y-158981203D01*
X177044619Y-158703093D01*
X176832026Y-158490129D01*
X176554117Y-158374731D01*
X176253203Y-158374469D01*
X175975093Y-158489381D01*
X175762129Y-158701974D01*
X175646731Y-158979883D01*
X175646595Y-159135891D01*
X172852243Y-161930243D01*
X172737050Y-162102642D01*
X172696599Y-162306000D01*
X172696600Y-162306005D01*
X172696600Y-166148979D01*
X172466435Y-166244081D01*
X172087412Y-166622443D01*
X172076266Y-166649286D01*
X172049666Y-166585068D01*
X171799286Y-166490240D01*
X170903526Y-167386000D01*
X170917669Y-167400143D01*
X170702143Y-167615669D01*
X170688000Y-167601526D01*
X170673858Y-167615669D01*
X170458332Y-167400143D01*
X170472474Y-167386000D01*
X169576714Y-166490240D01*
X169326334Y-166585068D01*
X169123481Y-167167122D01*
X169158812Y-167782499D01*
X169321226Y-168174600D01*
X163549400Y-168174600D01*
X163549400Y-166274714D01*
X169792240Y-166274714D01*
X170688000Y-167170474D01*
X171583760Y-166274714D01*
X171488932Y-166024334D01*
X170906878Y-165821481D01*
X170291501Y-165856812D01*
X169887068Y-166024334D01*
X169792240Y-166274714D01*
X163549400Y-166274714D01*
X163549400Y-157375797D01*
X169931469Y-157375797D01*
X170046381Y-157653907D01*
X170258974Y-157866871D01*
X170536883Y-157982269D01*
X170837797Y-157982531D01*
X171115907Y-157867619D01*
X171226318Y-157757400D01*
X172689694Y-157757400D01*
X172798974Y-157866871D01*
X173076883Y-157982269D01*
X173377797Y-157982531D01*
X173655907Y-157867619D01*
X173868871Y-157655026D01*
X173984269Y-157377117D01*
X173984531Y-157076203D01*
X173869619Y-156798093D01*
X173657026Y-156585129D01*
X173379117Y-156469731D01*
X173078203Y-156469469D01*
X172800093Y-156584381D01*
X172689682Y-156694600D01*
X171226306Y-156694600D01*
X171117026Y-156585129D01*
X170839117Y-156469731D01*
X170538203Y-156469469D01*
X170260093Y-156584381D01*
X170047129Y-156796974D01*
X169931731Y-157074883D01*
X169931469Y-157375797D01*
X163549400Y-157375797D01*
X163549400Y-146203447D01*
X163550244Y-146203447D01*
X163862804Y-146959901D01*
X164441055Y-147539162D01*
X165196962Y-147853042D01*
X166015447Y-147853756D01*
X166771901Y-147541196D01*
X167351162Y-146962945D01*
X167665042Y-146207038D01*
X167665045Y-146203447D01*
X183870244Y-146203447D01*
X184182804Y-146959901D01*
X184761055Y-147539162D01*
X185516962Y-147853042D01*
X186335447Y-147853756D01*
X187091901Y-147541196D01*
X187671162Y-146962945D01*
X187985042Y-146207038D01*
X187985756Y-145388553D01*
X187673196Y-144632099D01*
X187094945Y-144052838D01*
X186339038Y-143738958D01*
X185520553Y-143738244D01*
X184764099Y-144050804D01*
X184184838Y-144629055D01*
X183870958Y-145384962D01*
X183870244Y-146203447D01*
X167665045Y-146203447D01*
X167665756Y-145388553D01*
X167353196Y-144632099D01*
X166774945Y-144052838D01*
X166019038Y-143738958D01*
X165200553Y-143738244D01*
X164444099Y-144050804D01*
X163864838Y-144629055D01*
X163550958Y-145384962D01*
X163550244Y-146203447D01*
X163549400Y-146203447D01*
X163549400Y-143737400D01*
X187986600Y-143737400D01*
X187986600Y-168174600D01*
X187986600Y-168174600D01*
G37*
X187986600Y-168174600D02*
X181963501Y-168174600D01*
X181988588Y-168149557D01*
X182193966Y-167654951D01*
X182194434Y-167119399D01*
X181989919Y-166624435D01*
X181611557Y-166245412D01*
X181379400Y-166149012D01*
X181379400Y-157734000D01*
X181338950Y-157530642D01*
X181338950Y-157530641D01*
X181271274Y-157429358D01*
X181223757Y-157358243D01*
X181223754Y-157358241D01*
X177667757Y-153802243D01*
X177495358Y-153687050D01*
X177292000Y-153646599D01*
X177291995Y-153646600D01*
X174060707Y-153646600D01*
X174060702Y-153646599D01*
X173857344Y-153687050D01*
X173684945Y-153802243D01*
X173684943Y-153802246D01*
X172882585Y-154604604D01*
X172727905Y-154604469D01*
X172449795Y-154719381D01*
X172236831Y-154931974D01*
X172121433Y-155209883D01*
X172121171Y-155510797D01*
X172236083Y-155788907D01*
X172448676Y-156001871D01*
X172726585Y-156117269D01*
X173027499Y-156117531D01*
X173305609Y-156002619D01*
X173518573Y-155790026D01*
X173633971Y-155512117D01*
X173634107Y-155356109D01*
X174280815Y-154709400D01*
X177071886Y-154709400D01*
X180316600Y-157954113D01*
X180316600Y-166148979D01*
X180086435Y-166244081D01*
X179707412Y-166622443D01*
X179577935Y-166934258D01*
X179449919Y-166624435D01*
X179071557Y-166245412D01*
X178576951Y-166040034D01*
X178041399Y-166039566D01*
X177546435Y-166244081D01*
X177167412Y-166622443D01*
X177037935Y-166934258D01*
X176909919Y-166624435D01*
X176531557Y-166245412D01*
X176299400Y-166149012D01*
X176299400Y-164846000D01*
X176258950Y-164642642D01*
X176143757Y-164470243D01*
X176143754Y-164470241D01*
X175029400Y-163355886D01*
X175029400Y-163098306D01*
X175138871Y-162989026D01*
X175254269Y-162711117D01*
X175254531Y-162410203D01*
X175139619Y-162132093D01*
X174927026Y-161919129D01*
X174649117Y-161803731D01*
X174481929Y-161803585D01*
X176398118Y-159887396D01*
X176552797Y-159887531D01*
X176830907Y-159772619D01*
X177043871Y-159560026D01*
X177159269Y-159282117D01*
X177159531Y-158981203D01*
X177044619Y-158703093D01*
X176832026Y-158490129D01*
X176554117Y-158374731D01*
X176253203Y-158374469D01*
X175975093Y-158489381D01*
X175762129Y-158701974D01*
X175646731Y-158979883D01*
X175646595Y-159135891D01*
X172852243Y-161930243D01*
X172737050Y-162102642D01*
X172696599Y-162306000D01*
X172696600Y-162306005D01*
X172696600Y-166148979D01*
X172466435Y-166244081D01*
X172087412Y-166622443D01*
X172076266Y-166649286D01*
X172049666Y-166585068D01*
X171799286Y-166490240D01*
X170903526Y-167386000D01*
X170917669Y-167400143D01*
X170702143Y-167615669D01*
X170688000Y-167601526D01*
X170673858Y-167615669D01*
X170458332Y-167400143D01*
X170472474Y-167386000D01*
X169576714Y-166490240D01*
X169326334Y-166585068D01*
X169123481Y-167167122D01*
X169158812Y-167782499D01*
X169321226Y-168174600D01*
X163549400Y-168174600D01*
X163549400Y-166274714D01*
X169792240Y-166274714D01*
X170688000Y-167170474D01*
X171583760Y-166274714D01*
X171488932Y-166024334D01*
X170906878Y-165821481D01*
X170291501Y-165856812D01*
X169887068Y-166024334D01*
X169792240Y-166274714D01*
X163549400Y-166274714D01*
X163549400Y-157375797D01*
X169931469Y-157375797D01*
X170046381Y-157653907D01*
X170258974Y-157866871D01*
X170536883Y-157982269D01*
X170837797Y-157982531D01*
X171115907Y-157867619D01*
X171226318Y-157757400D01*
X172689694Y-157757400D01*
X172798974Y-157866871D01*
X173076883Y-157982269D01*
X173377797Y-157982531D01*
X173655907Y-157867619D01*
X173868871Y-157655026D01*
X173984269Y-157377117D01*
X173984531Y-157076203D01*
X173869619Y-156798093D01*
X173657026Y-156585129D01*
X173379117Y-156469731D01*
X173078203Y-156469469D01*
X172800093Y-156584381D01*
X172689682Y-156694600D01*
X171226306Y-156694600D01*
X171117026Y-156585129D01*
X170839117Y-156469731D01*
X170538203Y-156469469D01*
X170260093Y-156584381D01*
X170047129Y-156796974D01*
X169931731Y-157074883D01*
X169931469Y-157375797D01*
X163549400Y-157375797D01*
X163549400Y-146203447D01*
X163550244Y-146203447D01*
X163862804Y-146959901D01*
X164441055Y-147539162D01*
X165196962Y-147853042D01*
X166015447Y-147853756D01*
X166771901Y-147541196D01*
X167351162Y-146962945D01*
X167665042Y-146207038D01*
X167665045Y-146203447D01*
X183870244Y-146203447D01*
X184182804Y-146959901D01*
X184761055Y-147539162D01*
X185516962Y-147853042D01*
X186335447Y-147853756D01*
X187091901Y-147541196D01*
X187671162Y-146962945D01*
X187985042Y-146207038D01*
X187985756Y-145388553D01*
X187673196Y-144632099D01*
X187094945Y-144052838D01*
X186339038Y-143738958D01*
X185520553Y-143738244D01*
X184764099Y-144050804D01*
X184184838Y-144629055D01*
X183870958Y-145384962D01*
X183870244Y-146203447D01*
X167665045Y-146203447D01*
X167665756Y-145388553D01*
X167353196Y-144632099D01*
X166774945Y-144052838D01*
X166019038Y-143738958D01*
X165200553Y-143738244D01*
X164444099Y-144050804D01*
X163864838Y-144629055D01*
X163550958Y-145384962D01*
X163550244Y-146203447D01*
X163549400Y-146203447D01*
X163549400Y-143737400D01*
X187986600Y-143737400D01*
X187986600Y-168174600D01*
G36*
X213894600Y-168174600D02*
X207871501Y-168174600D01*
X207896588Y-168149557D01*
X208101966Y-167654951D01*
X208102434Y-167119399D01*
X207897919Y-166624435D01*
X207519557Y-166245412D01*
X207287400Y-166149012D01*
X207287400Y-157734000D01*
X207246950Y-157530642D01*
X207246950Y-157530641D01*
X207179274Y-157429358D01*
X207131757Y-157358243D01*
X207131754Y-157358241D01*
X203575757Y-153802243D01*
X203403358Y-153687050D01*
X203200000Y-153646599D01*
X203199995Y-153646600D01*
X199968707Y-153646600D01*
X199968702Y-153646599D01*
X199765344Y-153687050D01*
X199592945Y-153802243D01*
X199592943Y-153802246D01*
X198790585Y-154604604D01*
X198635905Y-154604469D01*
X198357795Y-154719381D01*
X198144831Y-154931974D01*
X198029433Y-155209883D01*
X198029171Y-155510797D01*
X198144083Y-155788907D01*
X198356676Y-156001871D01*
X198634585Y-156117269D01*
X198935499Y-156117531D01*
X199213609Y-156002619D01*
X199426573Y-155790026D01*
X199541971Y-155512117D01*
X199542107Y-155356109D01*
X200188815Y-154709400D01*
X202979886Y-154709400D01*
X206224600Y-157954113D01*
X206224600Y-166148979D01*
X205994435Y-166244081D01*
X205615412Y-166622443D01*
X205485935Y-166934258D01*
X205357919Y-166624435D01*
X204979557Y-166245412D01*
X204484951Y-166040034D01*
X203949399Y-166039566D01*
X203454435Y-166244081D01*
X203075412Y-166622443D01*
X202945935Y-166934258D01*
X202817919Y-166624435D01*
X202439557Y-166245412D01*
X202207400Y-166149012D01*
X202207400Y-164846000D01*
X202166950Y-164642642D01*
X202051757Y-164470243D01*
X202051754Y-164470241D01*
X200937400Y-163355886D01*
X200937400Y-163098306D01*
X201046871Y-162989026D01*
X201162269Y-162711117D01*
X201162531Y-162410203D01*
X201047619Y-162132093D01*
X200835026Y-161919129D01*
X200557117Y-161803731D01*
X200389929Y-161803585D01*
X202306118Y-159887396D01*
X202460797Y-159887531D01*
X202738907Y-159772619D01*
X202951871Y-159560026D01*
X203067269Y-159282117D01*
X203067531Y-158981203D01*
X202952619Y-158703093D01*
X202740026Y-158490129D01*
X202462117Y-158374731D01*
X202161203Y-158374469D01*
X201883093Y-158489381D01*
X201670129Y-158701974D01*
X201554731Y-158979883D01*
X201554595Y-159135891D01*
X198760243Y-161930243D01*
X198645050Y-162102642D01*
X198604599Y-162306000D01*
X198604600Y-162306005D01*
X198604600Y-166148979D01*
X198374435Y-166244081D01*
X197995412Y-166622443D01*
X197984266Y-166649286D01*
X197957666Y-166585068D01*
X197707286Y-166490240D01*
X196811526Y-167386000D01*
X196825669Y-167400143D01*
X196610143Y-167615669D01*
X196596000Y-167601526D01*
X196581858Y-167615669D01*
X196366332Y-167400143D01*
X196380474Y-167386000D01*
X195484714Y-166490240D01*
X195234334Y-166585068D01*
X195031481Y-167167122D01*
X195066812Y-167782499D01*
X195229226Y-168174600D01*
X189457400Y-168174600D01*
X189457400Y-166274714D01*
X195700240Y-166274714D01*
X196596000Y-167170474D01*
X197491760Y-166274714D01*
X197396932Y-166024334D01*
X196814878Y-165821481D01*
X196199501Y-165856812D01*
X195795068Y-166024334D01*
X195700240Y-166274714D01*
X189457400Y-166274714D01*
X189457400Y-157375797D01*
X195839469Y-157375797D01*
X195954381Y-157653907D01*
X196166974Y-157866871D01*
X196444883Y-157982269D01*
X196745797Y-157982531D01*
X197023907Y-157867619D01*
X197134318Y-157757400D01*
X198597694Y-157757400D01*
X198706974Y-157866871D01*
X198984883Y-157982269D01*
X199285797Y-157982531D01*
X199563907Y-157867619D01*
X199776871Y-157655026D01*
X199892269Y-157377117D01*
X199892531Y-157076203D01*
X199777619Y-156798093D01*
X199565026Y-156585129D01*
X199287117Y-156469731D01*
X198986203Y-156469469D01*
X198708093Y-156584381D01*
X198597682Y-156694600D01*
X197134306Y-156694600D01*
X197025026Y-156585129D01*
X196747117Y-156469731D01*
X196446203Y-156469469D01*
X196168093Y-156584381D01*
X195955129Y-156796974D01*
X195839731Y-157074883D01*
X195839469Y-157375797D01*
X189457400Y-157375797D01*
X189457400Y-146203447D01*
X189458244Y-146203447D01*
X189770804Y-146959901D01*
X190349055Y-147539162D01*
X191104962Y-147853042D01*
X191923447Y-147853756D01*
X192679901Y-147541196D01*
X193259162Y-146962945D01*
X193573042Y-146207038D01*
X193573045Y-146203447D01*
X209778244Y-146203447D01*
X210090804Y-146959901D01*
X210669055Y-147539162D01*
X211424962Y-147853042D01*
X212243447Y-147853756D01*
X212999901Y-147541196D01*
X213579162Y-146962945D01*
X213893042Y-146207038D01*
X213893756Y-145388553D01*
X213581196Y-144632099D01*
X213002945Y-144052838D01*
X212247038Y-143738958D01*
X211428553Y-143738244D01*
X210672099Y-144050804D01*
X210092838Y-144629055D01*
X209778958Y-145384962D01*
X209778244Y-146203447D01*
X193573045Y-146203447D01*
X193573756Y-145388553D01*
X193261196Y-144632099D01*
X192682945Y-144052838D01*
X191927038Y-143738958D01*
X191108553Y-143738244D01*
X190352099Y-144050804D01*
X189772838Y-144629055D01*
X189458958Y-145384962D01*
X189458244Y-146203447D01*
X189457400Y-146203447D01*
X189457400Y-143737400D01*
X213894600Y-143737400D01*
X213894600Y-168174600D01*
X213894600Y-168174600D01*
G37*
X213894600Y-168174600D02*
X207871501Y-168174600D01*
X207896588Y-168149557D01*
X208101966Y-167654951D01*
X208102434Y-167119399D01*
X207897919Y-166624435D01*
X207519557Y-166245412D01*
X207287400Y-166149012D01*
X207287400Y-157734000D01*
X207246950Y-157530642D01*
X207246950Y-157530641D01*
X207179274Y-157429358D01*
X207131757Y-157358243D01*
X207131754Y-157358241D01*
X203575757Y-153802243D01*
X203403358Y-153687050D01*
X203200000Y-153646599D01*
X203199995Y-153646600D01*
X199968707Y-153646600D01*
X199968702Y-153646599D01*
X199765344Y-153687050D01*
X199592945Y-153802243D01*
X199592943Y-153802246D01*
X198790585Y-154604604D01*
X198635905Y-154604469D01*
X198357795Y-154719381D01*
X198144831Y-154931974D01*
X198029433Y-155209883D01*
X198029171Y-155510797D01*
X198144083Y-155788907D01*
X198356676Y-156001871D01*
X198634585Y-156117269D01*
X198935499Y-156117531D01*
X199213609Y-156002619D01*
X199426573Y-155790026D01*
X199541971Y-155512117D01*
X199542107Y-155356109D01*
X200188815Y-154709400D01*
X202979886Y-154709400D01*
X206224600Y-157954113D01*
X206224600Y-166148979D01*
X205994435Y-166244081D01*
X205615412Y-166622443D01*
X205485935Y-166934258D01*
X205357919Y-166624435D01*
X204979557Y-166245412D01*
X204484951Y-166040034D01*
X203949399Y-166039566D01*
X203454435Y-166244081D01*
X203075412Y-166622443D01*
X202945935Y-166934258D01*
X202817919Y-166624435D01*
X202439557Y-166245412D01*
X202207400Y-166149012D01*
X202207400Y-164846000D01*
X202166950Y-164642642D01*
X202051757Y-164470243D01*
X202051754Y-164470241D01*
X200937400Y-163355886D01*
X200937400Y-163098306D01*
X201046871Y-162989026D01*
X201162269Y-162711117D01*
X201162531Y-162410203D01*
X201047619Y-162132093D01*
X200835026Y-161919129D01*
X200557117Y-161803731D01*
X200389929Y-161803585D01*
X202306118Y-159887396D01*
X202460797Y-159887531D01*
X202738907Y-159772619D01*
X202951871Y-159560026D01*
X203067269Y-159282117D01*
X203067531Y-158981203D01*
X202952619Y-158703093D01*
X202740026Y-158490129D01*
X202462117Y-158374731D01*
X202161203Y-158374469D01*
X201883093Y-158489381D01*
X201670129Y-158701974D01*
X201554731Y-158979883D01*
X201554595Y-159135891D01*
X198760243Y-161930243D01*
X198645050Y-162102642D01*
X198604599Y-162306000D01*
X198604600Y-162306005D01*
X198604600Y-166148979D01*
X198374435Y-166244081D01*
X197995412Y-166622443D01*
X197984266Y-166649286D01*
X197957666Y-166585068D01*
X197707286Y-166490240D01*
X196811526Y-167386000D01*
X196825669Y-167400143D01*
X196610143Y-167615669D01*
X196596000Y-167601526D01*
X196581858Y-167615669D01*
X196366332Y-167400143D01*
X196380474Y-167386000D01*
X195484714Y-166490240D01*
X195234334Y-166585068D01*
X195031481Y-167167122D01*
X195066812Y-167782499D01*
X195229226Y-168174600D01*
X189457400Y-168174600D01*
X189457400Y-166274714D01*
X195700240Y-166274714D01*
X196596000Y-167170474D01*
X197491760Y-166274714D01*
X197396932Y-166024334D01*
X196814878Y-165821481D01*
X196199501Y-165856812D01*
X195795068Y-166024334D01*
X195700240Y-166274714D01*
X189457400Y-166274714D01*
X189457400Y-157375797D01*
X195839469Y-157375797D01*
X195954381Y-157653907D01*
X196166974Y-157866871D01*
X196444883Y-157982269D01*
X196745797Y-157982531D01*
X197023907Y-157867619D01*
X197134318Y-157757400D01*
X198597694Y-157757400D01*
X198706974Y-157866871D01*
X198984883Y-157982269D01*
X199285797Y-157982531D01*
X199563907Y-157867619D01*
X199776871Y-157655026D01*
X199892269Y-157377117D01*
X199892531Y-157076203D01*
X199777619Y-156798093D01*
X199565026Y-156585129D01*
X199287117Y-156469731D01*
X198986203Y-156469469D01*
X198708093Y-156584381D01*
X198597682Y-156694600D01*
X197134306Y-156694600D01*
X197025026Y-156585129D01*
X196747117Y-156469731D01*
X196446203Y-156469469D01*
X196168093Y-156584381D01*
X195955129Y-156796974D01*
X195839731Y-157074883D01*
X195839469Y-157375797D01*
X189457400Y-157375797D01*
X189457400Y-146203447D01*
X189458244Y-146203447D01*
X189770804Y-146959901D01*
X190349055Y-147539162D01*
X191104962Y-147853042D01*
X191923447Y-147853756D01*
X192679901Y-147541196D01*
X193259162Y-146962945D01*
X193573042Y-146207038D01*
X193573045Y-146203447D01*
X209778244Y-146203447D01*
X210090804Y-146959901D01*
X210669055Y-147539162D01*
X211424962Y-147853042D01*
X212243447Y-147853756D01*
X212999901Y-147541196D01*
X213579162Y-146962945D01*
X213893042Y-146207038D01*
X213893756Y-145388553D01*
X213581196Y-144632099D01*
X213002945Y-144052838D01*
X212247038Y-143738958D01*
X211428553Y-143738244D01*
X210672099Y-144050804D01*
X210092838Y-144629055D01*
X209778958Y-145384962D01*
X209778244Y-146203447D01*
X193573045Y-146203447D01*
X193573756Y-145388553D01*
X193261196Y-144632099D01*
X192682945Y-144052838D01*
X191927038Y-143738958D01*
X191108553Y-143738244D01*
X190352099Y-144050804D01*
X189772838Y-144629055D01*
X189458958Y-145384962D01*
X189458244Y-146203447D01*
X189457400Y-146203447D01*
X189457400Y-143737400D01*
X213894600Y-143737400D01*
X213894600Y-168174600D01*
M02*
